<svg xmlns="http://www.w3.org/2000/svg" width="228" height="270.536" viewBox="0 0 228 270.536">
  <g id="Group_153" data-name="Group 153" transform="translate(-1645.837 -667.17)">
    <rect id="Rectangle_350" data-name="Rectangle 350" width="226" height="268.536" transform="translate(1646.837 668.17)" fill="none" stroke="#000" stroke-width="2"/>
    <rect id="Rectangle_351" data-name="Rectangle 351" width="211.639" height="256.725" transform="translate(1654.017 674.075)" fill="#fff"/>
    <g id="Group_131" data-name="Group 131" transform="translate(1654.017 674.075)" opacity="0.5">
      <rect id="Rectangle_352" data-name="Rectangle 352" width="21.139" height="19.725" fill="none" stroke="#000" stroke-width="0.5"/>
      <rect id="Rectangle_353" data-name="Rectangle 353" width="21.139" height="19.725" transform="translate(21.139)" fill="none" stroke="#000" stroke-width="0.5"/>
      <rect id="Rectangle_354" data-name="Rectangle 354" width="21.139" height="19.725" transform="translate(42.333)" fill="none" stroke="#000" stroke-width="0.5"/>
      <rect id="Rectangle_355" data-name="Rectangle 355" width="21.139" height="19.725" transform="translate(63.5)" fill="none" stroke="#000" stroke-width="0.5"/>
      <rect id="Rectangle_356" data-name="Rectangle 356" width="21.139" height="19.725" transform="translate(84.667)" fill="none" stroke="#000" stroke-width="0.5"/>
      <rect id="Rectangle_357" data-name="Rectangle 357" width="21.139" height="19.725" transform="translate(105.834)" fill="none" stroke="#000" stroke-width="0.5"/>
      <rect id="Rectangle_358" data-name="Rectangle 358" width="21.139" height="19.725" transform="translate(127)" fill="none" stroke="#000" stroke-width="0.5"/>
      <rect id="Rectangle_359" data-name="Rectangle 359" width="21.139" height="19.725" transform="translate(148.167)" fill="none" stroke="#000" stroke-width="0.5"/>
      <rect id="Rectangle_360" data-name="Rectangle 360" width="21.139" height="19.725" transform="translate(169.362)" fill="none" stroke="#000" stroke-width="0.5"/>
      <rect id="Rectangle_361" data-name="Rectangle 361" width="21.139" height="19.725" transform="translate(190.5)" fill="none" stroke="#000" stroke-width="0.5"/>
      <rect id="Rectangle_362" data-name="Rectangle 362" width="21.139" height="19.725" transform="translate(0 19.725)" fill="none" stroke="#000" stroke-width="0.5"/>
      <rect id="Rectangle_363" data-name="Rectangle 363" width="21.139" height="19.725" transform="translate(21.139 19.725)" fill="none" stroke="#000" stroke-width="0.5"/>
      <rect id="Rectangle_364" data-name="Rectangle 364" width="21.139" height="19.725" transform="translate(42.333 19.725)" fill="none" stroke="#000" stroke-width="0.5"/>
      <rect id="Rectangle_365" data-name="Rectangle 365" width="21.139" height="19.725" transform="translate(63.5 19.725)" fill="none" stroke="#000" stroke-width="0.5"/>
      <rect id="Rectangle_366" data-name="Rectangle 366" width="21.139" height="19.725" transform="translate(84.667 19.725)" fill="none" stroke="#000" stroke-width="0.5"/>
      <rect id="Rectangle_367" data-name="Rectangle 367" width="21.139" height="19.725" transform="translate(105.834 19.725)" fill="none" stroke="#000" stroke-width="0.5"/>
      <rect id="Rectangle_368" data-name="Rectangle 368" width="21.139" height="19.725" transform="translate(127 19.725)" fill="none" stroke="#000" stroke-width="0.5"/>
      <rect id="Rectangle_369" data-name="Rectangle 369" width="21.139" height="19.725" transform="translate(148.167 19.725)" fill="none" stroke="#000" stroke-width="0.5"/>
      <rect id="Rectangle_370" data-name="Rectangle 370" width="21.139" height="19.725" transform="translate(169.362 19.725)" fill="none" stroke="#000" stroke-width="0.5"/>
      <rect id="Rectangle_371" data-name="Rectangle 371" width="21.139" height="19.725" transform="translate(190.5 19.725)" fill="none" stroke="#000" stroke-width="0.5"/>
      <rect id="Rectangle_372" data-name="Rectangle 372" width="21.139" height="19.725" transform="translate(0 39.5)" fill="none" stroke="#000" stroke-width="0.5"/>
      <rect id="Rectangle_373" data-name="Rectangle 373" width="21.139" height="19.725" transform="translate(21.139 39.5)" fill="none" stroke="#000" stroke-width="0.5"/>
      <rect id="Rectangle_374" data-name="Rectangle 374" width="21.139" height="19.725" transform="translate(42.333 39.5)" fill="none" stroke="#000" stroke-width="0.5"/>
      <rect id="Rectangle_375" data-name="Rectangle 375" width="21.139" height="19.725" transform="translate(63.5 39.5)" fill="none" stroke="#000" stroke-width="0.5"/>
      <rect id="Rectangle_376" data-name="Rectangle 376" width="21.139" height="19.725" transform="translate(84.667 39.5)" fill="none" stroke="#000" stroke-width="0.5"/>
      <rect id="Rectangle_377" data-name="Rectangle 377" width="21.139" height="19.725" transform="translate(105.834 39.5)" fill="none" stroke="#000" stroke-width="0.5"/>
      <rect id="Rectangle_378" data-name="Rectangle 378" width="21.139" height="19.725" transform="translate(127 39.5)" fill="none" stroke="#000" stroke-width="0.5"/>
      <rect id="Rectangle_379" data-name="Rectangle 379" width="21.139" height="19.725" transform="translate(148.167 39.5)" fill="none" stroke="#000" stroke-width="0.5"/>
      <rect id="Rectangle_380" data-name="Rectangle 380" width="21.139" height="19.725" transform="translate(169.362 39.5)" fill="none" stroke="#000" stroke-width="0.5"/>
      <rect id="Rectangle_381" data-name="Rectangle 381" width="21.139" height="19.725" transform="translate(190.5 39.5)" fill="none" stroke="#000" stroke-width="0.5"/>
      <rect id="Rectangle_382" data-name="Rectangle 382" width="21.139" height="19.725" transform="translate(0 59.25)" fill="none" stroke="#000" stroke-width="0.5"/>
      <rect id="Rectangle_383" data-name="Rectangle 383" width="21.139" height="19.725" transform="translate(21.139 59.25)" fill="none" stroke="#000" stroke-width="0.5"/>
      <rect id="Rectangle_384" data-name="Rectangle 384" width="21.139" height="19.725" transform="translate(42.333 59.25)" fill="none" stroke="#000" stroke-width="0.5"/>
      <rect id="Rectangle_385" data-name="Rectangle 385" width="21.139" height="19.725" transform="translate(63.5 59.25)" fill="none" stroke="#000" stroke-width="0.5"/>
      <rect id="Rectangle_386" data-name="Rectangle 386" width="21.139" height="19.725" transform="translate(84.667 59.25)" fill="none" stroke="#000" stroke-width="0.5"/>
      <rect id="Rectangle_387" data-name="Rectangle 387" width="21.139" height="19.725" transform="translate(105.834 59.25)" fill="none" stroke="#000" stroke-width="0.5"/>
      <rect id="Rectangle_388" data-name="Rectangle 388" width="21.139" height="19.725" transform="translate(127 59.25)" fill="none" stroke="#000" stroke-width="0.5"/>
      <rect id="Rectangle_389" data-name="Rectangle 389" width="21.139" height="19.725" transform="translate(148.167 59.25)" fill="none" stroke="#000" stroke-width="0.5"/>
      <rect id="Rectangle_390" data-name="Rectangle 390" width="21.139" height="19.725" transform="translate(169.362 59.25)" fill="none" stroke="#000" stroke-width="0.5"/>
      <rect id="Rectangle_391" data-name="Rectangle 391" width="21.139" height="19.725" transform="translate(190.5 59.25)" fill="none" stroke="#000" stroke-width="0.5"/>
      <rect id="Rectangle_392" data-name="Rectangle 392" width="21.139" height="19.725" transform="translate(0 79)" fill="none" stroke="#000" stroke-width="0.5"/>
      <rect id="Rectangle_393" data-name="Rectangle 393" width="21.139" height="19.725" transform="translate(21.139 79)" fill="none" stroke="#000" stroke-width="0.5"/>
      <rect id="Rectangle_394" data-name="Rectangle 394" width="21.139" height="19.725" transform="translate(42.333 79)" fill="none" stroke="#000" stroke-width="0.5"/>
      <rect id="Rectangle_395" data-name="Rectangle 395" width="21.139" height="19.725" transform="translate(63.5 79)" fill="none" stroke="#000" stroke-width="0.5"/>
      <rect id="Rectangle_396" data-name="Rectangle 396" width="21.139" height="19.725" transform="translate(84.667 79)" fill="none" stroke="#000" stroke-width="0.5"/>
      <rect id="Rectangle_397" data-name="Rectangle 397" width="21.139" height="19.725" transform="translate(105.834 79)" fill="none" stroke="#000" stroke-width="0.5"/>
      <rect id="Rectangle_398" data-name="Rectangle 398" width="21.139" height="19.725" transform="translate(127 79)" fill="none" stroke="#000" stroke-width="0.5"/>
      <rect id="Rectangle_399" data-name="Rectangle 399" width="21.139" height="19.725" transform="translate(148.167 79)" fill="none" stroke="#000" stroke-width="0.5"/>
      <rect id="Rectangle_400" data-name="Rectangle 400" width="21.139" height="19.725" transform="translate(169.362 79)" fill="none" stroke="#000" stroke-width="0.5"/>
      <rect id="Rectangle_401" data-name="Rectangle 401" width="21.139" height="19.725" transform="translate(190.5 79)" fill="none" stroke="#000" stroke-width="0.5"/>
      <rect id="Rectangle_402" data-name="Rectangle 402" width="21.139" height="19.725" transform="translate(0 98.75)" fill="none" stroke="#000" stroke-width="0.5"/>
      <rect id="Rectangle_403" data-name="Rectangle 403" width="21.139" height="19.725" transform="translate(21.139 98.75)" fill="none" stroke="#000" stroke-width="0.5"/>
      <rect id="Rectangle_404" data-name="Rectangle 404" width="21.139" height="19.725" transform="translate(42.333 98.75)" fill="none" stroke="#000" stroke-width="0.5"/>
      <rect id="Rectangle_405" data-name="Rectangle 405" width="21.139" height="19.725" transform="translate(63.5 98.75)" fill="none" stroke="#000" stroke-width="0.5"/>
      <rect id="Rectangle_406" data-name="Rectangle 406" width="21.139" height="19.725" transform="translate(84.667 98.75)" fill="none" stroke="#000" stroke-width="0.5"/>
      <rect id="Rectangle_407" data-name="Rectangle 407" width="21.139" height="19.725" transform="translate(105.834 98.75)" fill="none" stroke="#000" stroke-width="0.5"/>
      <rect id="Rectangle_408" data-name="Rectangle 408" width="21.139" height="19.725" transform="translate(127 98.75)" fill="none" stroke="#000" stroke-width="0.5"/>
      <rect id="Rectangle_409" data-name="Rectangle 409" width="21.139" height="19.725" transform="translate(148.167 98.75)" fill="none" stroke="#000" stroke-width="0.5"/>
      <rect id="Rectangle_410" data-name="Rectangle 410" width="21.139" height="19.725" transform="translate(169.362 98.75)" fill="none" stroke="#000" stroke-width="0.5"/>
      <rect id="Rectangle_411" data-name="Rectangle 411" width="21.139" height="19.725" transform="translate(190.5 98.75)" fill="none" stroke="#000" stroke-width="0.5"/>
      <rect id="Rectangle_412" data-name="Rectangle 412" width="21.139" height="19.725" transform="translate(0 118.5)" fill="none" stroke="#000" stroke-width="0.5"/>
      <rect id="Rectangle_413" data-name="Rectangle 413" width="21.139" height="19.725" transform="translate(21.139 118.5)" fill="none" stroke="#000" stroke-width="0.5"/>
      <rect id="Rectangle_414" data-name="Rectangle 414" width="21.139" height="19.725" transform="translate(42.333 118.5)" fill="none" stroke="#000" stroke-width="0.5"/>
      <rect id="Rectangle_415" data-name="Rectangle 415" width="21.139" height="19.725" transform="translate(63.5 118.5)" fill="none" stroke="#000" stroke-width="0.5"/>
      <rect id="Rectangle_416" data-name="Rectangle 416" width="21.139" height="19.725" transform="translate(84.667 118.5)" fill="none" stroke="#000" stroke-width="0.5"/>
      <rect id="Rectangle_417" data-name="Rectangle 417" width="21.139" height="19.725" transform="translate(105.834 118.5)" fill="none" stroke="#000" stroke-width="0.5"/>
      <rect id="Rectangle_418" data-name="Rectangle 418" width="21.139" height="19.725" transform="translate(127 118.5)" fill="none" stroke="#000" stroke-width="0.5"/>
      <rect id="Rectangle_419" data-name="Rectangle 419" width="21.139" height="19.725" transform="translate(148.167 118.5)" fill="none" stroke="#000" stroke-width="0.5"/>
      <rect id="Rectangle_420" data-name="Rectangle 420" width="21.139" height="19.725" transform="translate(169.362 118.5)" fill="none" stroke="#000" stroke-width="0.5"/>
      <rect id="Rectangle_421" data-name="Rectangle 421" width="21.139" height="19.725" transform="translate(190.5 118.5)" fill="none" stroke="#000" stroke-width="0.5"/>
      <rect id="Rectangle_422" data-name="Rectangle 422" width="21.139" height="19.725" transform="translate(0 138.25)" fill="none" stroke="#000" stroke-width="0.5"/>
      <rect id="Rectangle_423" data-name="Rectangle 423" width="21.139" height="19.725" transform="translate(21.139 138.25)" fill="none" stroke="#000" stroke-width="0.5"/>
      <rect id="Rectangle_424" data-name="Rectangle 424" width="21.139" height="19.725" transform="translate(42.333 138.25)" fill="none" stroke="#000" stroke-width="0.5"/>
      <rect id="Rectangle_425" data-name="Rectangle 425" width="21.139" height="19.725" transform="translate(63.5 138.25)" fill="none" stroke="#000" stroke-width="0.5"/>
      <rect id="Rectangle_426" data-name="Rectangle 426" width="21.139" height="19.725" transform="translate(84.667 138.25)" fill="none" stroke="#000" stroke-width="0.5"/>
      <rect id="Rectangle_427" data-name="Rectangle 427" width="21.139" height="19.725" transform="translate(105.834 138.25)" fill="none" stroke="#000" stroke-width="0.5"/>
      <rect id="Rectangle_428" data-name="Rectangle 428" width="21.139" height="19.725" transform="translate(127 138.25)" fill="none" stroke="#000" stroke-width="0.5"/>
      <rect id="Rectangle_429" data-name="Rectangle 429" width="21.139" height="19.725" transform="translate(148.167 138.25)" fill="none" stroke="#000" stroke-width="0.5"/>
      <rect id="Rectangle_430" data-name="Rectangle 430" width="21.139" height="19.725" transform="translate(169.362 138.25)" fill="none" stroke="#000" stroke-width="0.5"/>
      <rect id="Rectangle_431" data-name="Rectangle 431" width="21.139" height="19.725" transform="translate(190.5 138.25)" fill="none" stroke="#000" stroke-width="0.5"/>
      <rect id="Rectangle_432" data-name="Rectangle 432" width="21.139" height="19.725" transform="translate(0 158)" fill="none" stroke="#000" stroke-width="0.5"/>
      <rect id="Rectangle_433" data-name="Rectangle 433" width="21.139" height="19.725" transform="translate(21.139 158)" fill="none" stroke="#000" stroke-width="0.5"/>
      <rect id="Rectangle_434" data-name="Rectangle 434" width="21.139" height="19.725" transform="translate(42.333 158)" fill="none" stroke="#000" stroke-width="0.5"/>
      <rect id="Rectangle_435" data-name="Rectangle 435" width="21.139" height="19.725" transform="translate(63.5 158)" fill="none" stroke="#000" stroke-width="0.5"/>
      <rect id="Rectangle_436" data-name="Rectangle 436" width="21.139" height="19.725" transform="translate(84.667 158)" fill="none" stroke="#000" stroke-width="0.5"/>
      <rect id="Rectangle_437" data-name="Rectangle 437" width="21.139" height="19.725" transform="translate(105.834 158)" fill="none" stroke="#000" stroke-width="0.5"/>
      <rect id="Rectangle_438" data-name="Rectangle 438" width="21.139" height="19.725" transform="translate(127 158)" fill="none" stroke="#000" stroke-width="0.5"/>
      <rect id="Rectangle_439" data-name="Rectangle 439" width="21.139" height="19.725" transform="translate(148.167 158)" fill="none" stroke="#000" stroke-width="0.5"/>
      <rect id="Rectangle_440" data-name="Rectangle 440" width="21.139" height="19.725" transform="translate(169.362 158)" fill="none" stroke="#000" stroke-width="0.5"/>
      <rect id="Rectangle_441" data-name="Rectangle 441" width="21.139" height="19.725" transform="translate(190.5 158)" fill="none" stroke="#000" stroke-width="0.5"/>
      <rect id="Rectangle_442" data-name="Rectangle 442" width="21.139" height="19.725" transform="translate(0 177.75)" fill="none" stroke="#000" stroke-width="0.5"/>
      <rect id="Rectangle_443" data-name="Rectangle 443" width="21.139" height="19.725" transform="translate(21.139 177.75)" fill="none" stroke="#000" stroke-width="0.5"/>
      <rect id="Rectangle_444" data-name="Rectangle 444" width="21.139" height="19.725" transform="translate(42.333 177.75)" fill="none" stroke="#000" stroke-width="0.5"/>
      <rect id="Rectangle_445" data-name="Rectangle 445" width="21.139" height="19.725" transform="translate(63.5 177.75)" fill="none" stroke="#000" stroke-width="0.5"/>
      <rect id="Rectangle_446" data-name="Rectangle 446" width="21.139" height="19.725" transform="translate(84.667 177.75)" fill="none" stroke="#000" stroke-width="0.5"/>
      <rect id="Rectangle_447" data-name="Rectangle 447" width="21.139" height="19.725" transform="translate(105.834 177.75)" fill="none" stroke="#000" stroke-width="0.5"/>
      <rect id="Rectangle_448" data-name="Rectangle 448" width="21.139" height="19.725" transform="translate(127 177.75)" fill="none" stroke="#000" stroke-width="0.5"/>
      <rect id="Rectangle_449" data-name="Rectangle 449" width="21.139" height="19.725" transform="translate(148.167 177.75)" fill="none" stroke="#000" stroke-width="0.5"/>
      <rect id="Rectangle_450" data-name="Rectangle 450" width="21.139" height="19.725" transform="translate(169.362 177.75)" fill="none" stroke="#000" stroke-width="0.5"/>
      <rect id="Rectangle_451" data-name="Rectangle 451" width="21.139" height="19.725" transform="translate(190.5 177.75)" fill="none" stroke="#000" stroke-width="0.5"/>
      <rect id="Rectangle_452" data-name="Rectangle 452" width="21.139" height="19.725" transform="translate(0 197.499)" fill="none" stroke="#000" stroke-width="0.5"/>
      <rect id="Rectangle_453" data-name="Rectangle 453" width="21.139" height="19.725" transform="translate(21.139 197.499)" fill="none" stroke="#000" stroke-width="0.5"/>
      <rect id="Rectangle_454" data-name="Rectangle 454" width="21.139" height="19.725" transform="translate(42.333 197.499)" fill="none" stroke="#000" stroke-width="0.5"/>
      <rect id="Rectangle_455" data-name="Rectangle 455" width="21.139" height="19.725" transform="translate(63.5 197.499)" fill="none" stroke="#000" stroke-width="0.5"/>
      <rect id="Rectangle_456" data-name="Rectangle 456" width="21.139" height="19.725" transform="translate(84.667 197.499)" fill="none" stroke="#000" stroke-width="0.5"/>
      <rect id="Rectangle_457" data-name="Rectangle 457" width="21.139" height="19.725" transform="translate(105.834 197.499)" fill="none" stroke="#000" stroke-width="0.5"/>
      <rect id="Rectangle_458" data-name="Rectangle 458" width="21.139" height="19.725" transform="translate(127 197.499)" fill="none" stroke="#000" stroke-width="0.5"/>
      <rect id="Rectangle_459" data-name="Rectangle 459" width="21.139" height="19.725" transform="translate(148.167 197.499)" fill="none" stroke="#000" stroke-width="0.5"/>
      <rect id="Rectangle_460" data-name="Rectangle 460" width="21.139" height="19.725" transform="translate(169.362 197.499)" fill="none" stroke="#000" stroke-width="0.5"/>
      <rect id="Rectangle_461" data-name="Rectangle 461" width="21.139" height="19.725" transform="translate(190.5 197.499)" fill="none" stroke="#000" stroke-width="0.5"/>
      <rect id="Rectangle_462" data-name="Rectangle 462" width="21.139" height="19.725" transform="translate(0 217.274)" fill="none" stroke="#000" stroke-width="0.5"/>
      <rect id="Rectangle_463" data-name="Rectangle 463" width="21.139" height="19.725" transform="translate(21.139 217.274)" fill="none" stroke="#000" stroke-width="0.5"/>
      <rect id="Rectangle_464" data-name="Rectangle 464" width="21.139" height="19.725" transform="translate(42.333 217.274)" fill="none" stroke="#000" stroke-width="0.5"/>
      <rect id="Rectangle_465" data-name="Rectangle 465" width="21.139" height="19.725" transform="translate(63.5 217.274)" fill="none" stroke="#000" stroke-width="0.5"/>
      <rect id="Rectangle_466" data-name="Rectangle 466" width="21.139" height="19.725" transform="translate(84.667 217.274)" fill="none" stroke="#000" stroke-width="0.5"/>
      <rect id="Rectangle_467" data-name="Rectangle 467" width="21.139" height="19.725" transform="translate(105.834 217.274)" fill="none" stroke="#000" stroke-width="0.5"/>
      <rect id="Rectangle_468" data-name="Rectangle 468" width="21.139" height="19.725" transform="translate(127 217.274)" fill="none" stroke="#000" stroke-width="0.5"/>
      <rect id="Rectangle_469" data-name="Rectangle 469" width="21.139" height="19.725" transform="translate(148.167 217.274)" fill="none" stroke="#000" stroke-width="0.5"/>
      <rect id="Rectangle_470" data-name="Rectangle 470" width="21.139" height="19.725" transform="translate(169.362 217.274)" fill="none" stroke="#000" stroke-width="0.5"/>
      <rect id="Rectangle_471" data-name="Rectangle 471" width="21.139" height="19.725" transform="translate(190.5 217.274)" fill="none" stroke="#000" stroke-width="0.5"/>
      <rect id="Rectangle_472" data-name="Rectangle 472" width="21.139" height="19.725" transform="translate(0 236.999)" fill="none" stroke="#000" stroke-width="0.5"/>
      <rect id="Rectangle_473" data-name="Rectangle 473" width="21.139" height="19.725" transform="translate(21.139 236.999)" fill="none" stroke="#000" stroke-width="0.5"/>
      <rect id="Rectangle_474" data-name="Rectangle 474" width="21.139" height="19.725" transform="translate(42.333 236.999)" fill="none" stroke="#000" stroke-width="0.5"/>
      <rect id="Rectangle_475" data-name="Rectangle 475" width="21.139" height="19.725" transform="translate(63.5 236.999)" fill="none" stroke="#000" stroke-width="0.5"/>
      <rect id="Rectangle_476" data-name="Rectangle 476" width="21.139" height="19.725" transform="translate(84.667 236.999)" fill="none" stroke="#000" stroke-width="0.5"/>
      <rect id="Rectangle_477" data-name="Rectangle 477" width="21.139" height="19.725" transform="translate(105.834 236.999)" fill="none" stroke="#000" stroke-width="0.5"/>
      <rect id="Rectangle_478" data-name="Rectangle 478" width="21.139" height="19.725" transform="translate(127 236.999)" fill="none" stroke="#000" stroke-width="0.5"/>
      <rect id="Rectangle_479" data-name="Rectangle 479" width="21.139" height="19.725" transform="translate(148.167 236.999)" fill="none" stroke="#000" stroke-width="0.5"/>
      <rect id="Rectangle_480" data-name="Rectangle 480" width="21.139" height="19.725" transform="translate(169.362 236.999)" fill="none" stroke="#000" stroke-width="0.5"/>
      <rect id="Rectangle_481" data-name="Rectangle 481" width="21.139" height="19.725" transform="translate(190.5 236.999)" fill="none" stroke="#000" stroke-width="0.5"/>
    </g>
    <g id="Group_132" data-name="Group 132" transform="translate(1662.256 680.135)">
      <path id="Path_442" data-name="Path 442" d="M3812.763,1961.208c.1-.423.3-.24.474-.063a3.071,3.071,0,0,1,.847,2.348,10.765,10.765,0,0,0,.784,3.346.32.32,0,0,0,.279.269c.09.009.231-.015.263.033.389.589,1.04,1.01,1.353,1.575a2.27,2.27,0,0,1-.144,2.011,1.951,1.951,0,0,0-.136,1.25c.033.3.136.341.4.281a.53.53,0,0,1,.652.237,2.566,2.566,0,0,0,2.368,1.376c.327-.008.436.154.456.466.024.375.624.8.917.593.614-.426,1.2-.094,1.713.06a32.61,32.61,0,0,1,3.871,1.446c.329.147.88.36.729,1,.254-.1.306-.263.408-.382.257-.3.5-.451.764.053a8.454,8.454,0,0,1,.916,2.114c.187.853.336,1.019.982.632,1.128-.675,1.916.028,2.777.422.506.231,1.049.288,1.526.469a7.334,7.334,0,0,0,4.07.286,3.176,3.176,0,0,1,2.439.975,11.757,11.757,0,0,1,2.646,2.206,9.639,9.639,0,0,0,1.456,1.631c1.073.914,2.211,1.793,3.826,1.417.882-.206,1.664.506,1.909,1.552.3,1.273.683,2.532.89,3.819a10.384,10.384,0,0,1-.4,4.57c-.5,1.747-1.79,2.986-2.705,4.464a5.2,5.2,0,0,1-1.348,1.306,6.4,6.4,0,0,0-1.65,2.684,19.128,19.128,0,0,1-1.757,3.205,1.542,1.542,0,0,1-.926.658c-.455.115-.862.359-.732,1.022a5.063,5.063,0,0,1-.144,1.725,13.806,13.806,0,0,0,.18,4.857.884.884,0,0,1-.028.477,26.81,26.81,0,0,0-.763,3.414,2.512,2.512,0,0,0,.114,1.089.846.846,0,0,1-.355.9,2.354,2.354,0,0,0-.925,1.905,10.031,10.031,0,0,0,.03,1.661,1.644,1.644,0,0,1-.579,1.54,1.8,1.8,0,0,0-.558,1.011,4.5,4.5,0,0,1-1.262,2.2,2.636,2.636,0,0,0-.713,1.888c.035,1.325.034,1.281-1.131,1.841-.514.247-1.219.485-.955,1.39a.571.571,0,0,1-.679.617,22.94,22.94,0,0,0-3.976.332.784.784,0,0,0-.6.3c-.167-.127-.685.45-.559-.295.045-.265-.214-.189-.341-.118s-.453.061-.2.35c.33.369.16.543-.247.558-.562.021-.858.519-1.336.692-.348.127.047.2.063.308.029.2.172.444-.006.586s-.421.044-.616-.1c-.714-.524-.963-.5-1.529.156-.094.108-.188.221-.335.2-.723-.079-1.093.506-1.59.844-.1.069-.118.275-.221.331-1.343.739-2.043,2.066-2.964,3.193-.374.458-.752.888-.424,1.534a.574.574,0,0,1-.09.529,2.266,2.266,0,0,0,.092,2.009c.138.327-.038.726.332,1.028.109.088-.144.625-.238.955-.011.037-.095.062-.1.093-.061,2.3-2.471,3.063-3.23,4.917-.171.419-.437.815-.573,1.254a9.171,9.171,0,0,1-3.765,5.108,3.142,3.142,0,0,0-1.524,1.953,5.218,5.218,0,0,1-2.261,3.181c-.107-.04-.256-.047-.314-.124a1.836,1.836,0,0,1,.186-2.272c.188-.185.542-.415.221-.662-.953-.73-1.179-2.116-2.409-2.593-.33-.128-.389-.677-.78-.739a2.609,2.609,0,0,1-1.9-1.3c-.192-.316-.382-.35-.619-.071-.181.215-.507.412-.568.062-.187-1.057-1.136-1.453-1.721-2.152-.316-.378-.761-.587-1.154.022-.275.425-.566.239-.817-.065.652-1.05,1.706-1.79,2.259-2.917.159-.011.38.048.452-.1.549-1.162,1.788-1.78,2.315-2.954a7.125,7.125,0,0,1,2.3-1.6,4.418,4.418,0,0,0,1.366-.974c.272-.238.523-.516.274-.994a1.1,1.1,0,0,1,.06-1.065c.244-.33.1-.485-.078-.706a1.041,1.041,0,0,1-.244-.393c-.065-.344.052-.708-.3-1-.4-.326-.722.049-1.08.023-.113-.008-.227-.006-.34-.009a2.463,2.463,0,0,1,.027-.616,9.909,9.909,0,0,0,.528-3.342c-.046-.92-.356-1.136-1.205-.78-.962.4-1.111.411-1.378-.433a9.248,9.248,0,0,1-.493-2.783c0-.557-.213-1.247-.674-1.284-.664-.052-1.322-.721-2.027-.134-.054.045-.182-.009-.272.005-.8.123-1.5-.388-2.292-.328-.264.02-.3-.192-.246-.385a7.159,7.159,0,0,0,.026-3.758,4,4,0,0,1-.327-1.352c.739-.187.841-.35.468-.96a1.29,1.29,0,0,1-.208-.746,24.513,24.513,0,0,0,.828-2.468,3.086,3.086,0,0,0-.207-2.633,1.409,1.409,0,0,0-.569-.574c-.792-.563-1.567-1.222-.933-2.569.2-.426.075-.678-.48-.657-.854.032-1.711.01-2.566-.015-.419-.013-.9-.081-1.079-.493-.366-.828-.058-1.867-.777-2.6-.022-.022-.01-.091.005-.132a10.4,10.4,0,0,0,.24-1.842c.07-.387-.445-.662-.246-1.024.275-.5-.057-.709-.328-1.005a2.027,2.027,0,0,0-1.909-.659c-.35.049-.878.175-1.04-.125a2.875,2.875,0,0,0-1.494-1.149c-.914-.455-1.774-1.02-2.66-1.534-.107-.063-.147-.275-.328-.175-.775.428-1.272.074-1.83-.485a3.935,3.935,0,0,0-.7-.657,2.809,2.809,0,0,1-1.111-2.473,2.043,2.043,0,0,0-.1-1.286,1.119,1.119,0,0,1,.007-.877,2.318,2.318,0,0,0,0-1.629c-.166-.467-.511.2-.8.065-.042-.018-.081-.073-.116-.068a5.024,5.024,0,0,0-1.7.256c-.834.445-1.542,1.121-2.34,1.64-.291.19-.506.72-.753.607-.518-.237-.666.081-.88.359-.447.582-.9,1.116-1.723.591-.05-.032-.136-.007-.205-.008a2.476,2.476,0,0,0-2.209-.118c-.931.259-1.871.279-1.692-1.056.1-.742-.172-1.507.153-2.253.037-.084.2-.534-.088-.671-.253-.12-.4.178-.563.319-.278.237-.522.512-.788.765a4.456,4.456,0,0,1-2.189.215c-.167-.107-.1-.29-.147-.436-.108-.333-.151-.817-.509-.875-.449-.073-.814-.4-1.31-.327-.416.062-.486-.2-.257-.512a.76.76,0,0,0,.01-.883c-.361-.762-1.172-1.256-1.309-2.133-.129-.827-1.271-1.56-.256-2.507.037-.035.03-.138.015-.2a1.5,1.5,0,0,1,.933-1.68c.466-.255.422-.542.476-.927.19-1.35.133-2.836,1.563-3.637.59-.33.962-.976,1.674-1.113a5.051,5.051,0,0,0,2.3-.91.7.7,0,0,1,1.151.13c.239.347.563.436.771-.076.09-.866.229-1.734.392-2.578.287-1.492.458-3,.708-4.494a3.654,3.654,0,0,0-.2-2.346c-.184-.367-.072-.956-.543-1.145-.684-.275-.595-.806-.6-1.336,0-.185,0-.37,0-.555a1.268,1.268,0,0,1,1.587-1.067c.176.081.262.229.442.03a.482.482,0,0,0,.1-.509c-.167-.585-.715-.541-1.135-.659a.854.854,0,0,1-.6-1.117c.119-.622.57-1.03,1.035-.8a5.067,5.067,0,0,0,2.023.2c.313.027.663.075.749-.392a.212.212,0,0,1,.336-.12c.561.571.794.041,1.108-.294.407-.435.669-.354,1,.154a2.428,2.428,0,0,1,.3,1.513c-.019.422.116.615.553.519.4.137.565.516.8.813.1.126.176.307.348.307,1.047,0,2.147.216,2.978-.708a3.919,3.919,0,0,1,1.5-1.1,1.068,1.068,0,0,0,.89-1.109c.018-.153.007-.416.2-.383.4.068.618-.29.955-.313.426-.029.465-.264.4-.619-.072-.413-.319-.288-.568-.236-.36.074-.871.031-.818-.347.1-.741-.432-1.257-.467-1.917-.037-.723-.039-1.444-.835-1.841-.141-.07-.2-.356-.245-.554a.3.3,0,0,1,.275-.4c.295-.006.7-.057.868.107.758.754,1.964.461,2.71,1.238.222.231.723.234.659-.26-.077-.584.3-.656.627-.686a8.142,8.142,0,0,0,3.962-1.825c.608-.431.63-.738.243-1.247l.274-.011c1.43-.035,1.552.136,1.123,1.55-.043.141-.12.389.122.364.456-.047.758.408,1.208.312l0,0a.839.839,0,0,0-.062,1.254c.04.047-.093.3-.2.4-.645.619-.479,1.52-.792,2.257a1.624,1.624,0,0,0,.061,1.223c.229.554.612,1.059.459,1.719-.019.085.068.217.14.295a13.68,13.68,0,0,0,1.134,1.171c.313.267.724.586,1.121.478.577-.156.832-1.026,1.631-.812.02.006.094-.1.1-.158.041-.319.275-.341.511-.323a.9.9,0,0,0,.858-.442c.175-.255.455-.551.73-.354.5.356,1,.169,1.5.176.281.1.611-.043.865.162s.334-.073.426-.173c.207-.225.054-.424-.138-.576-.351-.279-.084-.561-.01-.837a.24.24,0,0,1,.387-.14c.526.427.906.167,1.317-.193.215-.189.583-.243.726.026a1.523,1.523,0,0,0,1.129.69.769.769,0,0,0,1.094.142,2.431,2.431,0,0,1,1.8-.1c.893.212,1.285-.03,1.635-.927a18.68,18.68,0,0,1,.824-1.96C3811.862,1963.155,3812.653,1962.342,3812.763,1961.208Z" transform="translate(-3658.502 -1882.318)" fill="#fff" stroke="#020202" stroke-linejoin="round" stroke-width="1"/>
      <path id="Path_443" data-name="Path 443" d="M3801.064,2054.144c-.553,1.127-1.607,1.867-2.259,2.917-.244.517-1.166.784-.58,1.61.1.147-.03.3-.113.439-.513.877-.216,1.985-.8,2.849-.054.079-.006.225-.007.341-.01,1.1.472,2.228-.4,3.281a2.153,2.153,0,0,0,.007,2.322c-.281,1.31-.279,1.306,1,1.942a5.237,5.237,0,0,1,1.332.861c.654.627.7.82.247,1.583a1.206,1.206,0,0,0,.955,1.815c.2.016.363-.016.39.249a2.865,2.865,0,0,1-.433,2.238,7.23,7.23,0,0,0-1.426,1.891,2.266,2.266,0,0,1-1.475,1.464,17,17,0,0,1-3.813,1.132,18.577,18.577,0,0,1-4.716.509c-.5-.039-.5.6-.621.888-.264.613-.112,1.371-.676,1.924-.224.219-.1.569.058.906-.017.021.056-.082-.067-.058a.243.243,0,0,0-.157.086.162.162,0,0,0,.053.15c.09.037.162,0,.171-.178.171-.036.3.02.269.24a1.655,1.655,0,0,1-.945,1.522,6.255,6.255,0,0,1-2.951.439c-.33-.017-.533-.253-.816-.331-.352-.54-.974-.475-1.484-.662-.718-.264-1.014-.053-1.023.736-.009.75.436,1.432.294,2.213-.109.594.072,1.059.8,1.066.2,0,.246.138.309.3.162.432.547.215.837.233.25.016.525-.174.475-.4-.155-.694.57-.27.684-.588a.481.481,0,0,1,.074.726.171.171,0,0,0-.013.245c.356.418.061.76-.131,1.114-.565.114-1.163.346-1.285-.58-.037-.28-.355-.238-.584-.239a1.128,1.128,0,0,0-.775.407c-.125.121.088.26.179.3a4.883,4.883,0,0,0,.837.295c.168.045.424-.032.436.218.011.214-.248.283-.4.318a2.643,2.643,0,0,0-1.582,1.1,1.041,1.041,0,0,0-.249,1.166c.2.451.019.911.067,1.366a.543.543,0,0,1-.295.519c-.523.175-.844.333-.5.984.139.262-.668.586-1.1.388-.1-.045-.215-.19-.291-.133-.685.517-1.685.392-2.258,1.166-.253.344-.462.707-.7,1.056a1.317,1.317,0,0,0,.428,2.149c.1.062.226.1.287.189a2.526,2.526,0,0,0,2.546,1.014.692.692,0,0,1,.777.765,10.564,10.564,0,0,1-.3,1.793c-.074.5-.765.731-1.211,1.03a15.335,15.335,0,0,0-2.4,1.576c-.258.253-.512.49-.5.855a10.468,10.468,0,0,1-.339,1.69c-.07.518-.6.7-1.061.868a9.143,9.143,0,0,0-1.464.6,1.655,1.655,0,0,0-.73,1.932,5.017,5.017,0,0,0,1.279,2.834,2.307,2.307,0,0,1,.335.439.325.325,0,0,1,.047.384c-.122.2-.232.039-.339-.007-.388-.165-.9.107-1.205-.352a10.4,10.4,0,0,0-2.757-.657c-1.063-.036-2.128,0-3.192-.008a1.813,1.813,0,0,1-1.768-1.936c.032-.329-.055-.648.17-.974a.543.543,0,0,0-.241-.724,1.208,1.208,0,0,0-1.176-.077c-.642.352-.76.3-.883-.418-.04-.233-.046-.466-.249-.619a.979.979,0,0,1-.325-.934,1.22,1.22,0,0,0-.12-.808c-.219-.3.019-.5.124-.745.179-.416.682.2.782-.252a1.21,1.21,0,0,1,.456-.883c.019-.012.037-.035.057-.036,1.222-.085.685-1.506,1.46-1.941.037-.021-.008-.274-.075-.383a1.461,1.461,0,0,1,.364-1.971c.367-.373.722-.751.578-1.357a.4.4,0,0,1,.27-.5c.372-.122.437-.374.3-.707-.316-.75.126-1.506-.02-2.259a.321.321,0,0,1,.207-.389.85.85,0,0,0,.558-.907,1.04,1.04,0,0,0-1.025-.774c-.241,0-.517-.04-.555-.426.548.043,1.069-.225,1.613-.015.147.057.244-.03.306-.19.228-.585.119-.751-.6-.878-.857-.15-.86-.2-.587-1.007.126-.372.357-.924.107-1.166-.355-.342-.574-.534-.214-.978a.188.188,0,0,0-.159-.3c-.735.005-.6-.516-.633-.97-.04-.48.247-.934.067-1.431-.054-.149.095-.367.317-.385.693-.054.589-.455.376-.876-.491-.974.258-2.066-.3-3.031-.007-.013.011-.043.02-.064a4.632,4.632,0,0,0,.513-2.77c-.021-.111-.006-.256.111-.3.643-.267.526-.857.562-1.357.041-.578.256-.988.864-1.045.477-.044.443-.347.367-.64a13.459,13.459,0,0,1-.591-2.894,21.444,21.444,0,0,1,.174-2.232.912.912,0,0,1,.6-.772,1.859,1.859,0,0,0,1-2.075c-.047-.418-.336-.862-.172-1.229a9.411,9.411,0,0,1,1.291-2.693.821.821,0,0,0,.17-.782,2.124,2.124,0,0,1,.011-1.224c.075-.292.193-.666-.306-.761a.232.232,0,0,1-.193-.253c.086-1.125-.69-2.113-.515-3.254.021-.137-.094-.244-.189-.352a1.4,1.4,0,0,1,.006-2.062.566.566,0,0,0,.126-.453,1.526,1.526,0,0,1,.469-1.25,1.793,1.793,0,0,0,.413-2.121c-.358-1.343.8-2.323.614-3.568-.006-.043.078-.112.132-.152a5.863,5.863,0,0,0,1.678-3.009.762.762,0,0,1,.62-.6c.784-.182.84-.334.383-1.02-.3-.45-.426-.88-.014-1.317a.6.6,0,0,0,.113-.709c-.643-1.077.184-2.283-.323-3.367-.038-.081.1-.244.159-.371.376-.874,1.285-.957,2-1.3a1.413,1.413,0,0,0,.922-1.032,6.753,6.753,0,0,1,.408-1.427,1.128,1.128,0,0,0-.22-1.293c.43-.788.818-1.612,1.774-1.922.255-.083.308-.336.318-.567.015-.346.219-.463.415-.217.591.744,1.378.68,2.189.679a1.543,1.543,0,0,1,1.7,1.34c.062.218.057.457.371.481a6.909,6.909,0,0,1,.671-1.72c.083-.167.181-.386.381-.357.968.135,2.128-.526,2.846.667.158.4.7.528.8.872.512,1.7,2.192,2.318,3.216,3.535a1.3,1.3,0,0,0,.673.311,5.414,5.414,0,0,1,2.653,1.117,6.064,6.064,0,0,0,1.032.848c.876.54,1.86.84,2.763,1.321.418.222.508.61.706.935.136.223-.234.377-.3.572-.276.79-1.022,1.35-1.152,2.167a3.411,3.411,0,0,1-.748,1.694c-.113.136-.2.278-.122.429.091.173.293.107.44.089a2.928,2.928,0,0,1,1.793.328c.937.514,2,.117,2.957.468a.212.212,0,0,0,.261-.17c.15-.709.6-.41.9-.209.406.274.574-.015.674-.247a2.182,2.182,0,0,1,.847-1.012,2.205,2.205,0,0,0,1.24-1.7,7.445,7.445,0,0,1,.3-1.96c.113,0,.227,0,.34.009.358.026.682-.349,1.08-.023.354.29.237.654.3,1a1.041,1.041,0,0,0,.244.393c.175.221.322.376.078.706a1.1,1.1,0,0,0-.06,1.065c.249.478,0,.756-.274.994a4.418,4.418,0,0,1-1.366.974,7.125,7.125,0,0,0-2.3,1.6c-.412-.062-.646.221-.852.489A26.615,26.615,0,0,0,3801.064,2054.144Z" transform="translate(-3658.578 -1882.186)" fill="#fff" stroke="#020202" stroke-linejoin="round" stroke-width="1"/>
      <path id="Path_444" data-name="Path 444" d="M3672.648,1901.01c.3-.2.44-.165.316.228a2.253,2.253,0,0,0,.992,2.393.508.508,0,0,1,.153.864c-.382.425-.226.854-.027,1.287.092.2.218.407.464.3.211-.095.148-.3.049-.473a.563.563,0,0,1-.019-.511,33.973,33.973,0,0,1,2.165,2.73,1.044,1.044,0,0,1-.027,1.331,1.676,1.676,0,0,1-.319.265c-.251.217-.461.592-.842.464s-.337-.557-.414-.887a1.683,1.683,0,0,0-.951-1.349c-.25-.1-.372-.339-.552-.515a3.762,3.762,0,0,0-2.178-1.331c-.388-.05-.762-.489-1.067-.821a1.08,1.08,0,0,1-.145-1.189c.356-1.019.6-2.152-.334-2.966-.717-.621-1.517-1.168-2.286-1.741-.135-.1-.25-.036-.379.035a.373.373,0,0,1-.536-.162,2.244,2.244,0,0,0-1.3-.843c-.126-.049-.331-.115-.344-.2-.119-.734-.83-.939-1.227-1.419-.1-.122-.293-.218-.215-.4.095-.215.316-.123.484-.1,1.175.144,1.76-.319,1.74-1.457-.012-.683-.671-.987-1.016-1.476a6.291,6.291,0,0,0-2.436-1.971.754.754,0,0,1-.388-.693c0-.833-.88-1.345-.756-2.2a.158.158,0,0,0-.038-.13c-.715-.416-.51-1.369-1.1-1.867a1.4,1.4,0,0,1-.409-.984,3.776,3.776,0,0,0-.742-1.441c-.347-.572-.3-.688.372-.8,1.479-.246,2.988-.178,4.466-.447.207-.037.657-.194.5.4-.063.235.241.309.427.378q4.085,1.512,8.173,3.01a.8.8,0,0,0,.268.052c2.06,0,4.119,0,6.179.007.429,0,.371-.291.336-.519-.107-.7.209-.865.855-.827.853.051,1.712.016,2.568.007.519-.005.961.093,1.163.656.157.44.665.474.946.774a11.176,11.176,0,0,0,1.861,1.631,2.222,2.222,0,0,1,.9,1.646,2.8,2.8,0,0,0,1.678,2.185c.327.2.727.373,1.087.559.847.438,1.283.3,1.562-.635.174-.59.307-1.11,1.049-1.291a3.508,3.508,0,0,1,2.712.721.674.674,0,0,0,.2.19c1.136.578,1.479,1.747,1.9,2.778a6.079,6.079,0,0,0,1.378,1.991,3.918,3.918,0,0,1,.825,1.843,14.266,14.266,0,0,0,.668,1.625c.226.449.652.39.953.554a3.5,3.5,0,0,0,2.1.764.623.623,0,0,1,.6.264.383.383,0,0,0,.588.1c.5-.309.508-.007.466.4a7.307,7.307,0,0,1-.781,1.911,15.722,15.722,0,0,0-.624,5.408,11.2,11.2,0,0,0-.2,1.846,3.535,3.535,0,0,0,1.06,2.267c.208.19.5.409.068.737-.167.127-.065.417,0,.681.345,1.39,1.44,2.3,2.1,3.479a.761.761,0,0,1,.131.318c.029.939.764,1.532,1.141,2.3a1.015,1.015,0,0,0,.87.5,2.379,2.379,0,0,1,2.248,1.377.376.376,0,0,0,.509.214,7.684,7.684,0,0,0,1.038-.379,3.282,3.282,0,0,1,1.734-.388,1.387,1.387,0,0,0,1.082-.35,2.625,2.625,0,0,1,1.78-.387,1.354,1.354,0,0,0,.751-.179,12.529,12.529,0,0,0,1.476-1.027,4.97,4.97,0,0,0,.748-1.32c.609-1.005.36-2.056.5-3.078a1.751,1.751,0,0,1,1.549-1.476c1.265-.241,2.5-.585,3.734-.92a1.53,1.53,0,0,1,.953.068,1.431,1.431,0,0,0,1.259,0,.843.843,0,0,1,1.1.237,1.479,1.479,0,0,1,.214,1.265c-.292.862-1.044,1.383-1.43,2.162a1.156,1.156,0,0,0-.2.92c.149.418-.344.5-.407.874.6-.256.513.063.418.431-.3,1.173-.588,2.351-.88,3.527a2.085,2.085,0,0,1-.612-1.381c-.285.193-.378.543-.733.519s-.459.184-.531.495a2.033,2.033,0,0,1-.356.8c-.092.114-.222.44-.443.283-.542-.385-.546.035-.628.371-1.2-.01-2.4,0-3.6-.04-.475-.016-.662.08-.6.6.048.39.19.889-.556.918-.369.015-.254.3-.027.524a10.915,10.915,0,0,1,1.725,1.84c.163.257.068.42.064.625-.006.32-.258.258-.457.259-.693.005-1.386,0-2.078.01-.176,0-.436-.069-.5.13-.281.893-1.082,1.582-.916,2.672.068.444.275,1.063-.282,1.45a18.923,18.923,0,0,1-2.088-2.276,6.718,6.718,0,0,0-2.7-1.954,2.725,2.725,0,0,0-2.539.277,4.954,4.954,0,0,1-2.607.99,2.579,2.579,0,0,1-1.348-.453c-.156-.1-.329-.289-.468-.267-1.157.183-2.006-.595-2.826-1.1-.914-.567-1.988-.615-2.795-1.1-1.159-.7-2.529-.94-3.582-1.84a8.453,8.453,0,0,1-1.577-1.416.452.452,0,0,0-.412-.217c-1.233.159-2.212-.578-3.3-.932a.387.387,0,0,1-.209-.172,5.318,5.318,0,0,0-2.732-2.261,5.192,5.192,0,0,1-2.131-2.669c-.074-.14-.108-.3-.182-.44-.2-.376-.153-.6.321-.674.171-.028.464-.018.489-.3s-.207-.289-.4-.38c-.3-.138-.028-.326.065-.409a1.27,1.27,0,0,0,.468-1.276.858.858,0,0,0-.208-.454,2.5,2.5,0,0,1-.747-1.7c.037-1.139-.874-1.763-1.472-2.553a11.95,11.95,0,0,1-1.2-1.593,6.127,6.127,0,0,0-1.91-1.96c-.564-.435-1.221-.794-1.067-1.687a.3.3,0,0,0-.206-.317c-.808-.349-1.508-.891-2.3-1.278s-.907-.861-.571-1.7c.424-1.056.384-1.139-.74-1.442a.47.47,0,0,1-.358-.293,1.719,1.719,0,0,0-1.086-1.065,1.348,1.348,0,0,1-.763-1.48c.02-.354-.014-.55-.434-.456a.856.856,0,0,1-.829-.371c-.8-1.086-1.945-1.9-2.5-3.2a8.037,8.037,0,0,0-.672-1.268c-.629-.949-.674-2.151-1.373-3.061a.2.2,0,0,1-.038-.132c.1-.818.028-1.5-1.05-1.495-.113,0-.172-.133-.19-.259-.073-.5-.352-.554-.732-.309-.543.349-.856-.143-1.124-.393-.515-.479-.725-.174-.838.252a1.422,1.422,0,0,0,.043,1.274,2.425,2.425,0,0,1,.392,1.579,2.544,2.544,0,0,0,1.23,2.231,7.708,7.708,0,0,1,1.512,1.677,8.56,8.56,0,0,0,1.362,1.739c.209.17.194.634.248.969a1.94,1.94,0,0,0,.816,1.421,4.944,4.944,0,0,1,1.182,1.513,1.282,1.282,0,0,0,.411.486,2.529,2.529,0,0,1,.792,1.238c.136.343.261.689.391,1.034a.245.245,0,0,0-.087.3c.017.066.065.071.084.015C3672.607,1901.185,3672.625,1901.1,3672.648,1901.01Z" transform="translate(-3658.754 -1882.484)" fill="#fff" stroke="#020202" stroke-linejoin="round" stroke-width="1"/>
      <path id="Path_445" data-name="Path 445" d="M3769.638,1984.964c-.208.512-.532.423-.771.076a.7.7,0,0,0-1.151-.13,5.051,5.051,0,0,1-2.3.91c-.712.137-1.084.783-1.674,1.113-1.43.8-1.373,2.287-1.563,3.637-.054.385-.01.672-.476.927a1.5,1.5,0,0,0-.933,1.68c.015.065.022.168-.015.2-1.015.947.127,1.68.256,2.507.137.877.948,1.371,1.309,2.133a.76.76,0,0,1-.01.883c-.229.31-.159.574.257.512.5-.076.861.254,1.31.327.358.058.4.542.509.875.048.146-.02.329.147.436a4.456,4.456,0,0,0,2.189-.215c.266-.253.51-.528.788-.765.165-.141.31-.439.563-.319.287.137.125.587.088.671-.325.746-.054,1.511-.153,2.253-.179,1.335.761,1.315,1.692,1.056a2.476,2.476,0,0,1,2.209.118c-.433.1-.9-.093-1.442.161.639.287.484.916.807,1.3a11.661,11.661,0,0,1,1.129,2.088.928.928,0,0,1-.04.871,4.688,4.688,0,0,0-.236,3.812.6.6,0,0,1-.085.652,6.035,6.035,0,0,0-.87,1.453.94.94,0,0,0-.02.986.649.649,0,0,1,.014.728c-.164.378-.355.886.337,1.107a1.62,1.62,0,0,1,.6.31c.229.215.629.437.03.754a.964.964,0,0,0-.481.915c.107.732-.76,1.042-.664,1.733-.877.273-.324.8-.217,1.24-.484.243-1.007.418-.732,1.186.105.294-.218.561-.5.756s-.669.121-.963.3c-.876-.385-1.352-1.313-2.258-1.659a.189.189,0,0,1-.1-.23c.121-.721-.286-1.069-.9-1.241a1.366,1.366,0,0,1-.545-.41,20.585,20.585,0,0,0-3.922-2.3c-1.162-.676-2.217-1.536-3.411-2.173-.285-.152-.309-.492-.479-.731-.651-.921-1.686-1.542-2.086-2.65-.164-.456-.62-.871-.094-1.433a.821.821,0,0,0,0-.976,14.5,14.5,0,0,1-1.344-2.684c-.086-.208-.4-.264-.441-.41a15.592,15.592,0,0,0-1.487-3.114c-.145-.283-.161-.639-.328-.9a33.3,33.3,0,0,1-1.522-3.657c-.691-1.436-.839-3.128-2.057-4.327a2.653,2.653,0,0,1-.542-1.176,4.806,4.806,0,0,0-2.7-3.183,4.157,4.157,0,0,1-.875-.663.493.493,0,0,1,.23-.9c.281-.074.276-.288.223-.471a2.034,2.034,0,0,0-.3-.536c-.129-.191-.42-.4-.39-.548.125-.638-.24-1.15-.336-1.724a1.761,1.761,0,0,1,.537-1.49c.554-.63.935-1.424,1.779-1.759a.931.931,0,0,1,.011,1.447,1.021,1.021,0,0,0-.259.884c0,.154-.054.343.123.436s.308-.03.4-.167c.127-.186.328-.252.475-.125.534.461,1.408.539,1.56,1.451.041.241.393.611.683.326a3.059,3.059,0,0,0,1.163-1.72,7.712,7.712,0,0,1,1.312-3.172,2.4,2.4,0,0,1,1.186-.876,7.643,7.643,0,0,0,2.957-1.6,10.964,10.964,0,0,0,2.329-4.025,1.159,1.159,0,0,0-.408-1.43c-.584-.3-.239-.536-.111-.829a2.85,2.85,0,0,1,2.741,2.142.94.94,0,0,0,.562.775c.7.354,1.414.717,1.412,1.674,0,.121.069.249.2.247.792-.014.64.559.631,1.021-.007.341-.022.728.413.719.835-.017,1.745.325,2.476-.338.365-.331.649-.365,1-.01a.459.459,0,0,0,.612.136.964.964,0,0,1,1.443.25c.087.122.332.131.5.191a.813.813,0,0,1,.522,1.133c-.257.727-.781,1.3-1.092,1.994-.063.14-.209.274-.1.445a.383.383,0,0,0,.491.149c.393-.166.564.041.669.359A1.291,1.291,0,0,0,3769.638,1984.964Z" transform="translate(-3658.625 -1882.345)" fill="#fff" stroke="#020202" stroke-linejoin="round" stroke-width="1"/>
      <path id="Path_446" data-name="Path 446" d="M3769.638,1984.964a1.291,1.291,0,0,1-.527-.618c-.1-.318-.276-.525-.669-.359a.383.383,0,0,1-.491-.149c-.109-.171.037-.305.1-.445.311-.693.835-1.267,1.092-1.994a.813.813,0,0,0-.522-1.133c-.172-.06-.417-.069-.5-.191a.964.964,0,0,0-1.443-.25.459.459,0,0,1-.612-.136c-.35-.355-.634-.321-1,.01-.731.663-1.641.321-2.476.338-.435.009-.42-.378-.413-.719.009-.462.161-1.035-.631-1.021-.129,0-.2-.126-.2-.247,0-.957-.712-1.32-1.412-1.674a.94.94,0,0,1-.562-.775,2.85,2.85,0,0,0-2.741-2.142l-.15-.133-.127-.137-.012-.016a.12.12,0,0,0-.152-.1.671.671,0,0,1-.637-.318c-.371-.664-.52-.686-1.241-.282a.679.679,0,0,1-.389.1c-.82-.114-1.763.039-2.157-1.02a.731.731,0,0,0-.5-.417,1.737,1.737,0,0,1-1.011-.517c-.55-.43-1.085-.88-1.626-1.321.053-.312-.654-.246-.344-.675.218-.3.388-.715.91-.351.1.068.194-.187.1-.393a1.327,1.327,0,0,1,1.3-2.018.749.749,0,0,0,.709-.568,5.685,5.685,0,0,1,1.163-2.028.33.33,0,0,0-.052-.53,4.494,4.494,0,0,1-.5-.654c-.175-.224-.248-.548-.086-.705.672-.649.392-1.417.288-2.131-.057-.389.137-.888-.335-1.191-.081-.052-.025-.308.111-.352.741-.241.417-.692.21-1.087-.182-.346-.311-.64-.042-1.017a.471.471,0,0,0-.17-.75c-.477-.276-.419-.872-.714-1.26-.356-.572.119-1.029.217-1.559.173.113.271.438.555.057.419-.562.882-1.053.378-1.8a3.086,3.086,0,0,1-.2-.511c-.126-.292-.033-.439.279-.46.164.6.76.839,1.046,1.385.145-.262.174-.541.061-.649-.629-.6-.1-.673.319-.97a2.517,2.517,0,0,0,1.11-1.364.9.9,0,0,1,.934-.664c.42-.008.659-.134.315-.565-.2-.254.06-.421.106-.624.095-.423.21-.826-.566-.714.5-.119.594-.457.677-.821.2-.883,1.054-1.214,1.593-1.81.219-.241.519.066.761.152.461.164.76.191.764-.436,0-.467.283-.606.7-.442a1.72,1.72,0,0,0,2.064-.376,2.958,2.958,0,0,1,1.43-.924c.229-.052.508-.2.526-.5.048-.762.714-.968,1.2-1.241a1.006,1.006,0,0,1,1.248.409c.253.345.437.709-.066,1.118a11.954,11.954,0,0,1-1.715.821c-.243.413-.39.978-.75,1.208a3.5,3.5,0,0,0-1.455,2.409,5.172,5.172,0,0,1-.8,2.5c-.11.128-.228.4-.169.49.118.191.319.078.467-.061.068-.064.172-.12.23-.016.216.391.752.536.762,1.107a1.24,1.24,0,0,0,.33.884,1.426,1.426,0,0,1,.308,1.588c-.159.495-.326,1.307.081,1.47.632.252.466.91.911,1.156.071.039.18.006.272.01,1.238.046,2.466-.306,3.728.079a1.288,1.288,0,0,1,.922.625c.163.3.342.6.526.894.336.534.607,1.206,1.452.655.1-.068.312.028.473.042a4.993,4.993,0,0,0,2.287-.247.7.7,0,0,1,.88.183.777.777,0,0,1-.018.881,6.3,6.3,0,0,0-.659,1.734,5.988,5.988,0,0,0-.086,1.849,3.783,3.783,0,0,0,.8,2.476c.509.539.424.919-.086,1.529-.226.27-.585.437-.667.685.593.646,1.269,1.032,1.476,1.949s.613,1.821.763,2.778c-.437.1-.572-.1-.553-.519a2.428,2.428,0,0,0-.3-1.513c-.327-.508-.589-.589-1-.154-.314.335-.547.865-1.108.294a.212.212,0,0,0-.336.12c-.086.467-.436.419-.749.392a5.067,5.067,0,0,1-2.023-.2c-.465-.23-.916.178-1.035.8a.854.854,0,0,0,.6,1.117c.42.118.968.074,1.135.659a.482.482,0,0,1-.1.509c-.18.2-.266.051-.442-.03a1.268,1.268,0,0,0-1.587,1.067c0,.185,0,.37,0,.555,0,.53-.085,1.061.6,1.336.471.189.359.778.543,1.145a3.654,3.654,0,0,1,.2,2.346c-.25,1.495-.421,3-.708,4.494C3769.867,1983.23,3769.728,1984.1,3769.638,1984.964ZM3753.59,1951.1c-.017-.063-.026-.147-.123-.078a.4.4,0,0,0-.144.142.089.089,0,0,0,.1.127A.2.2,0,0,0,3753.59,1951.1Z" transform="translate(-3658.617 -1882.4)" fill="#defa2e" stroke="#020202" stroke-width="1"/>
      <path id="Path_447" data-name="Path 447" d="M3768.57,2024.2c.294-.182.664-.1.963-.3s.608-.462.5-.756c-.275-.768.248-.943.732-1.187.191.739.744,1.3.922,2.072.242,1.048.164,2.294,1.36,2.917a.28.28,0,0,1,.1.165c-.515.52-.073,1.29-.476,1.822a1.171,1.171,0,0,0-.161.39c-.272.765.384,1.3.583,1.878a18.24,18.24,0,0,1,.827,2.187,11.412,11.412,0,0,1,.48,2.684.8.8,0,0,0,1.21.752,2.59,2.59,0,0,1,.569-.229,1.128,1.128,0,0,1,.22,1.293,6.753,6.753,0,0,0-.408,1.427,1.413,1.413,0,0,1-.922,1.032c-.715.345-1.624.428-2,1.3-.055.127-.2.29-.159.371.507,1.084-.32,2.29.323,3.367a.6.6,0,0,1-.113.709c-.412.437-.286.867.014,1.317.457.686.4.838-.383,1.02a.762.762,0,0,0-.62.6,5.863,5.863,0,0,1-1.678,3.009c-.054.04-.138.109-.132.152.185,1.245-.972,2.225-.614,3.568a1.793,1.793,0,0,1-.413,2.121,1.526,1.526,0,0,0-.469,1.25.566.566,0,0,1-.126.453,1.4,1.4,0,0,0-.006,2.062c.095.108.21.215.189.352-.175,1.141.6,2.129.515,3.254a.232.232,0,0,0,.193.253c.5.095.381.469.306.761a2.124,2.124,0,0,0-.011,1.224.821.821,0,0,1-.17.782,9.411,9.411,0,0,0-1.291,2.693c-.164.367.125.811.172,1.229a1.859,1.859,0,0,1-1,2.075.912.912,0,0,0-.6.772,21.444,21.444,0,0,0-.174,2.232,13.459,13.459,0,0,0,.591,2.894c.076.293.11.6-.367.64-.608.057-.823.467-.864,1.045-.036.5.081,1.09-.562,1.357-.117.049-.132.194-.111.3a4.632,4.632,0,0,1-.513,2.77c-.009.021-.027.051-.02.064.557.965-.192,2.057.3,3.031.213.421.317.822-.376.876-.222.018-.371.236-.317.385.18.5-.107.951-.067,1.431.037.454-.1.975.633.97a.188.188,0,0,1,.159.3c-.36.444-.141.636.214.978.25.242.019.794-.107,1.166-.273.806-.27.857.587,1.007.723.127.832.293.6.878-.062.16-.159.247-.306.19-.544-.21-1.065.058-1.613.015.038.386.314.43.555.426a1.04,1.04,0,0,1,1.025.774.85.85,0,0,1-.558.907.321.321,0,0,0-.207.389c.146.753-.3,1.509.02,2.259.139.333.074.585-.3.707a.4.4,0,0,0-.27.5c.144.606-.211.984-.578,1.357a1.461,1.461,0,0,0-.364,1.971c.067.109.112.362.075.383-.775.435-.238,1.856-1.46,1.941-.02,0-.038.024-.057.036a1.21,1.21,0,0,0-.456.883c-.1.449-.6-.164-.782.252-.1.246-.343.441-.124.745a1.22,1.22,0,0,1,.12.808.979.979,0,0,0,.325.934c.2.153.209.386.249.619.123.716.241.77.883.418a1.208,1.208,0,0,1,1.176.077.543.543,0,0,1,.241.724c-.225.326-.138.645-.17.974a1.813,1.813,0,0,0,1.768,1.936c1.064.007,2.129-.028,3.192.008a10.4,10.4,0,0,1,2.757.657c-.239.074-.6-.146-.7.247a.748.748,0,0,0,.194.692c.295.348.528.118.784,0,.33-.153.623-.2.773.232-.154,1.952-.03,3.908-.067,5.861-.008.422.228.445.546.319.2.2.531.275.423.733-.054.228.173.579.441.784a.494.494,0,0,1,.144.73c-.25.308-.449-.022-.619-.165s-.313-.3-.538-.2a3.084,3.084,0,0,1-2.775-.264c-.433-.218-1.153-.049-1.276-.789,0-.033-.116-.083-.161-.07a3.116,3.116,0,0,1-3.061-.976c-.035-.031-.072-.087-.106-.085-1.2.069-1.793-1.064-2.781-1.411-.189-.067-.42-.024-.6-.1-.467-.2-1.155-.207-1-1.031.034-.184-.107-.262-.29-.311-.545-.145-.972-.384-.831-1.085.049-.245-.042-.465-.327-.16-.362-.114-.355-.658-.794-.683-.044-.011-.1-.008-.13-.037-.239-.272-.809-.467-.618-.832.134-.254.572.128.867.268.258.122.564.1.824.275.148.1.353.012.421-.218.087-.3-.127-.252-.3-.307a3.256,3.256,0,0,1-1.738-.952c-.212-.263-.767-.234-.706-.776a1.2,1.2,0,0,0-.045-.339c-.291-.632-.172-.866.515-.973.091-.014.186,0,.274-.026.209-.052.276-.23.32-.411a.2.2,0,0,0-.057-.18c-.176-.09-.29.055-.424.135a.845.845,0,0,1-1.158-.063c.009-.155.017-.31.026-.465.162-.115.483-.051.5-.29.044-.475.217-.981-.21-1.394.349-.168.7,0,1.034-.221a.662.662,0,0,1-.179-.739c.073-.251-.187-.311-.263-.168-.278.523-1.076.74-.908,1.52a.164.164,0,0,1-.075.067.318.318,0,0,0-.114-.012c-.365-.109-.539-.236-.419-.719.14-.566-.017-1.2.327-1.74.056-.089,0-.283-.118-.281-.6.01-.472-.441-.41-.726.153-.7-.332-1.27-.3-1.973.036-.759.253-1.478.285-2.226a.308.308,0,0,1,.294-.326c.229-.025.258-.165.293-.379a.614.614,0,0,1,1.088-.354c.112.1.2.138.263,0,.236-.489.847-.847.6-1.5-.1-.276.254-.312.185-.556a1.93,1.93,0,0,1-.881-.285c-.374-.313-.785-.578-1.152.124-.136.259-.653.244-.856-.037-.187-.258-.3-.711.066-.92.445-.252.785-.627,1.219-.88.342-.065.232-.336.248-.548.014-.2-.077-.451.2-.524.521-.141.372-.864.9-1.014.07-.019.074-.356-.2-.4a.3.3,0,0,1,.074-.42.909.909,0,0,0,.246-1.114.92.92,0,0,0,0-1.109c.073-.14.2-.266.155-.442-.179-.7.507-.881.806-1.267a.606.606,0,0,1,.906.155c.2.344.752.58.463,1.094-.343.612-.109,1.258-.185,1.883a.228.228,0,0,0,.25.265.213.213,0,0,0,.219-.282.965.965,0,0,1,.222-1.329c.156-.131.062-.572.065-.872,0-.206-.033-.393.182-.551.322-.237.31-.562.2-.933-.1-.341-.163-.686.275-.95.332-.2.295-.656.252-1-.046-.374-.146-.712.175-1.022a.25.25,0,0,0-.036-.372.58.58,0,0,0-.594,0c-.15.076-.107.248-.051.37s.224.168.22.334c0,.212.015.47-.305.23-.3-.227-.572.008-.725.136-.208.174-.024.411.193.549.052.034.122.079.133.129a5.141,5.141,0,0,1-1.178,1.231c-.252.019-.5.041-.758.042a.672.672,0,0,1-.626-1.007,2.72,2.72,0,0,0,.444-1.949c-.076-.577.332-1.046.336-1.6a.2.2,0,0,1,.118-.149c.689-.147.411-.557.267-.94a2.345,2.345,0,0,1-.1-1.564,16.178,16.178,0,0,0,.413-1.944c.147-.7.805-1,1-1.666a2.172,2.172,0,0,0-.066-1.515c-.332-.821-.776-1.626-.317-2.553a.536.536,0,0,0-.069-.393,2.319,2.319,0,0,1-.023-2.691c.177.139.082.558.465.469s.236-.412.232-.629a1.182,1.182,0,0,1,.449-1.088c.5-.368.405-1,.588-1.5a9.941,9.941,0,0,1,1.225-2.625,3.374,3.374,0,0,0,.519-2.22,1.329,1.329,0,0,1,.4-1.115,1.418,1.418,0,0,0,.267-1.759c-.079-.179-.138-.347.085-.475.355-.2.347-.561.386-.905a13.434,13.434,0,0,0-.226-3.671,12.982,12.982,0,0,1-.087-3.041c.034-.442.56-.406.649-.873.131-.687.459-1.278-.245-1.876a.864.864,0,0,1-.047-1.1,6.256,6.256,0,0,0,.935-2.735,42.5,42.5,0,0,0,1.071-5.006,1.1,1.1,0,0,0-.092-.591,1.035,1.035,0,0,1,.223-1.041,1.5,1.5,0,0,0,.229-1.566c-.431-1.234.132-2.4.155-3.594,0-.11.181-.191.022-.343-.587-.564-.539-.873.053-1.481a1.336,1.336,0,0,0,.331-.883c-.05-1.565.566-3.081.311-4.657a6.555,6.555,0,0,1,0-2.205,9.068,9.068,0,0,0-.365-3C3768.63,2025.658,3768.662,2024.93,3768.57,2024.2Z" transform="translate(-3658.613 -1882.186)" fill="#fff" stroke="#020202" stroke-linejoin="round" stroke-width="1"/>
      <path id="Path_448" data-name="Path 448" d="M3776.894,1969.963c-.15-.957-.554-1.848-.763-2.778s-.883-1.3-1.476-1.949c.082-.248.441-.415.667-.685.51-.61.595-.99.086-1.529a3.783,3.783,0,0,1-.8-2.476,5.988,5.988,0,0,1,.086-1.849,6.3,6.3,0,0,1,.659-1.734.777.777,0,0,0,.018-.881.7.7,0,0,0-.88-.183,4.993,4.993,0,0,1-2.287.247c-.161-.014-.369-.11-.473-.042-.845.551-1.116-.121-1.452-.655-.184-.292-.363-.59-.526-.894a1.288,1.288,0,0,0-.922-.625c-1.262-.385-2.49-.033-3.728-.079-.092,0-.2.029-.272-.01-.445-.246-.279-.9-.911-1.156-.407-.163-.24-.975-.081-1.47a1.426,1.426,0,0,0-.308-1.588,1.24,1.24,0,0,1-.33-.884c-.01-.571-.546-.716-.762-1.107-.058-.1-.162-.048-.23.016-.148.139-.349.252-.467.061-.059-.095.059-.362.169-.49a5.172,5.172,0,0,0,.8-2.5,3.5,3.5,0,0,1,1.455-2.409c.36-.23.507-.8.75-1.208a2.3,2.3,0,0,0,.759,1.487.727.727,0,0,0,.826.135,10.456,10.456,0,0,1,2.3-1c.345-.146.359-.274.207-.552a1.483,1.483,0,0,1-.056-1.391.627.627,0,0,1,.642-.331c.354.045.321.328.377.571.067.291.173.573.243.864a.533.533,0,0,0,.615.441c.937-.31,1.572.293,2.273.676a1.644,1.644,0,0,1,.668,1.365c.115.78.37.973,1.116.735a26.966,26.966,0,0,1,3.267-.446.583.583,0,0,1,.711.483c.145.458.646.637,1.053.789.633.236,1.259.507,1.9-.2.336-.37,1.1-.308,1.227-1.022.006-.039.161-.076.247-.075,1.709.011,3.418-.171,5.128-.043a.184.184,0,0,1,.157.142c-.661-.005-1.165.756-1.9.176-.017.756.663,1.111.716,1.723.535-.361.929.253,1.407.2a.872.872,0,0,1,.813.244c.484.546,1.419.57,1.637,1.421.028.108.107.216.1.318a2.736,2.736,0,0,0,.4,1.749c.691-.479.826-.454,1.784.355a2.988,2.988,0,0,1-1.561,1.624c-.4.192-.36.65-.617.921.372.194-.017.9.658.931.287.014.339.309.1.506a1.835,1.835,0,0,1-1.071.55c-.575.032-.954.279-.806.972a1,1,0,0,1-.282,1.075c-.23.191-.127.448.018.621a15.924,15.924,0,0,0,1.422,1.77c.387.509.365.816-.243,1.247a8.142,8.142,0,0,1-3.962,1.825c-.329.03-.7.1-.627.686.064.494-.437.491-.659.26-.746-.777-1.952-.484-2.71-1.238-.165-.164-.573-.113-.868-.107a.3.3,0,0,0-.275.4c.048.2.1.484.245.554.8.4.8,1.118.835,1.841.035.66.571,1.176.467,1.917-.053.378.458.421.818.347.249-.052.5-.177.568.236.063.355.024.59-.4.619-.337.023-.558.381-.955.313-.191-.033-.18.23-.2.383a1.068,1.068,0,0,1-.89,1.109,3.919,3.919,0,0,0-1.5,1.1c-.831.924-1.931.709-2.978.708-.172,0-.245-.181-.348-.307C3777.459,1970.479,3777.3,1970.1,3776.894,1969.963Z" transform="translate(-3658.594 -1882.405)" fill="#fff" stroke="#020202" stroke-linejoin="round" stroke-width="1"/>
      <path id="Path_449" data-name="Path 449" d="M3748.626,1969.293c.541.441,1.076.891,1.626,1.321a1.737,1.737,0,0,0,1.011.517.731.731,0,0,1,.5.417c.394,1.059,1.337.906,2.157,1.02a.679.679,0,0,0,.389-.1c.721-.4.87-.382,1.241.282a.669.669,0,0,0,.638.317l.151.1.012.016.127.138.15.132c-.128.293-.473.528.111.829a1.159,1.159,0,0,1,.408,1.43,10.964,10.964,0,0,1-2.329,4.025,7.643,7.643,0,0,1-2.957,1.6,2.4,2.4,0,0,0-1.186.876,7.712,7.712,0,0,0-1.312,3.172,3.059,3.059,0,0,1-1.163,1.72c-.29.285-.642-.085-.683-.326-.152-.912-1.026-.99-1.56-1.451-.147-.127-.348-.061-.475.125-.095.137-.221.263-.4.167s-.119-.282-.123-.436a1.021,1.021,0,0,1,.259-.884.931.931,0,0,0-.011-1.447.384.384,0,0,1,.266-.346,1.207,1.207,0,0,0,.819-1.413c-.3.016-.34.279-.462.45a.294.294,0,0,1-.349.14.22.22,0,0,1-.157-.269c.116-.814-.6-1.053-1.058-1.384-.434-.313-.661-.475-.164-.889.078-.065.166-.233.135-.3-.355-.72.086-1.537-.285-2.245-.18-.343-.1-.631.253-.707.645-.14.7-.683.692-1.111a1.256,1.256,0,0,1,.339-.99,1.706,1.706,0,0,0,.613-1.891c-.334-.961.47-1.136,1.043-1.366C3747.586,1970.259,3748.287,1970.046,3748.626,1969.293Z" transform="translate(-3658.635 -1882.37)" fill="#fff" stroke="#020202" stroke-linejoin="round" stroke-width="1"/>
      <path id="Path_450" data-name="Path 450" d="M3791.383,1958.89a15.924,15.924,0,0,1-1.422-1.77c-.145-.173-.248-.43-.018-.621a1,1,0,0,0,.282-1.075c-.148-.693.231-.94.806-.972a1.835,1.835,0,0,0,1.071-.55c.243-.2.191-.492-.1-.506-.675-.033-.286-.737-.658-.931.257-.271.219-.729.617-.921a2.988,2.988,0,0,0,1.561-1.624,7.016,7.016,0,0,1,3.043,2.789c.2.31-.07.852.321,1.083.894.527,1.476,1.4,2.309,1.985a1.107,1.107,0,0,1,.562.889c.014.773-.417,1.474-.359,2.258.013.173-.016.462-.221.45-1.025-.06-1.055.55-1.262,1.369-.367,1.455-.059,2.538,1.32,3.167a.2.2,0,0,1,.136.209c-.052.34.166.6.261.891a5.426,5.426,0,0,0,1.673,2.982c-.5-.007-1,.18-1.5-.176-.275-.2-.555.1-.73.354a.9.9,0,0,1-.858.442c-.236-.018-.47,0-.511.323-.008.059-.082.164-.1.158-.8-.214-1.054.656-1.631.812-.4.108-.808-.211-1.121-.478a13.68,13.68,0,0,1-1.134-1.171c-.072-.078-.159-.21-.14-.295.153-.66-.23-1.165-.459-1.719a1.624,1.624,0,0,1-.061-1.223c.313-.737.147-1.638.792-2.257.106-.1.239-.354.2-.4a.839.839,0,0,1,.062-1.254c.126.053.231.048.23-.12,0-.039-.081-.077-.124-.116l-.109.234c-.45.1-.752-.359-1.208-.312-.242.025-.165-.223-.122-.364.429-1.414.307-1.585-1.123-1.55Z" transform="translate(-3658.573 -1882.395)" fill="#fff" stroke="#020202" stroke-linejoin="round" stroke-width="1"/>
      <path id="Path_451" data-name="Path 451" d="M3796.909,2067.9a2.153,2.153,0,0,1-.007-2.322c.877-1.053.4-2.177.4-3.281,0-.116-.047-.262.007-.341.582-.864.285-1.972.8-2.849.083-.142.218-.292.113-.439-.586-.826.336-1.093.58-1.61.251.3.542.49.817.065.393-.609.838-.4,1.154-.022.585.7,1.534,1.095,1.721,2.152.061.35.387.153.568-.062.237-.279.427-.245.619.071a2.609,2.609,0,0,0,1.9,1.3c.391.062.45.611.78.739,1.23.477,1.456,1.863,2.409,2.593.321.247-.033.477-.221.662a1.836,1.836,0,0,0-.186,2.272c.058.077.207.084.314.124a8.366,8.366,0,0,0-.871,1.529,5.453,5.453,0,0,1-2.793,1.855c-.241.106-.651-.119-.965-.239a1.616,1.616,0,0,0-1.561,0c-.4.257-.735.086-1.149-.08-.972-.391-1.755-1.376-2.988-1.013-.161.047-.387.06-.469-.174C3797.717,2068.355,3797.267,2068.179,3796.909,2067.9Z" transform="translate(-3658.563 -1882.26)" fill="#fff" stroke="#020202" stroke-linejoin="round" stroke-width="1"/>
      <path id="Path_452" data-name="Path 452" d="M3747.841,1914.913a2.771,2.771,0,0,0,1.564.627c.166.037.343.219.493.012s-.1-.265-.194-.364c-.334-.346-.22-.841-.43-1.22-.043-.078-.089-.728-.338-.07-.03.081-.194.112-.193-.016.005-.729-.46-.29-.745-.322a4.646,4.646,0,0,1-2.657-.958,2.541,2.541,0,0,0-2.18-.4,2.686,2.686,0,0,1-2.092-.811c-.27-.243-.233-.38.134-.415a1.438,1.438,0,0,0,.812-.207c-.254-.46-.714-.333-1.077-.305-.831.063-1.71,0-2.3.839a1.19,1.19,0,0,1-1.247.518c-.335-.065-.623-.01-.711.443-.066.342-1.109.652-1.431.441-.238-.157-.322.1-.487.109-.148,0-.341.1-.4-.134-.042-.161.037-.263.2-.3a1.148,1.148,0,0,0,1.039-1.266c.012-.475.647-.71,1.081-.93a13.127,13.127,0,0,1,2.845-.939,7.332,7.332,0,0,1,3.1-.166.355.355,0,0,0,.2-.045c1.646-.77,2.95.056,4.224.931a3.04,3.04,0,0,0,1.176.384c1.192.27,2.472.333,3.3,1.582a5.161,5.161,0,0,0,3.058,2.289c.488.121.885.553,1.473.361.168-.054.382.207.376.344-.039.859.656.836,1.141.87a1.731,1.731,0,0,1,1.284.674.779.779,0,0,0,.616.38c.193,0,.362.072.384.313.025.283-.192.533-.365.509-1.022-.14-1.86.756-2.873.5a6.9,6.9,0,0,0-2.8-.118c-.7.11-1.407.175-2.11.27-.136.018-.275.1-.368-.061a.351.351,0,0,1,.067-.446c.323-.323.674-.62.986-.953.108-.116.482-.209.287-.352s-.165-.53-.56-.514c-.71.029-1.452-.219-2.079.333a.315.315,0,0,1-.387.011A4.4,4.4,0,0,1,3747.841,1914.913Z" transform="translate(-3658.641 -1882.484)" fill="#fff" stroke="#020202" stroke-linejoin="round" stroke-width="1"/>
      <path id="Path_453" data-name="Path 453" d="M3801.309,1967.992a5.426,5.426,0,0,1-1.673-2.982c-.095-.3-.313-.551-.261-.891a.2.2,0,0,0-.136-.209c-1.379-.629-1.687-1.712-1.32-3.167.207-.819.237-1.429,1.262-1.369.205.012.234-.277.221-.45-.058-.784.373-1.485.359-2.258a4.329,4.329,0,0,1,1.566.1,3.378,3.378,0,0,0,1.6-.019,7.242,7.242,0,0,1,3.994.257c.1.038.164.154.246.233a1.5,1.5,0,0,1-.468,1.139,2.893,2.893,0,0,0-.445,3.076c.107.346-.116.817.353,1.038.093.555.54,1.049.282,1.664a.424.424,0,0,0-.263.5,2.466,2.466,0,0,1-.3,1.524c-.124.248-.357.455-.314.772a1.523,1.523,0,0,1-1.129-.69c-.143-.269-.511-.215-.726-.026-.411.36-.791.62-1.317.193a.24.24,0,0,0-.387.14c-.074.276-.341.558.01.837.192.152.345.351.138.576-.092.1-.172.378-.426.173S3801.59,1968.088,3801.309,1967.992Z" transform="translate(-3658.564 -1882.39)" fill="#fff" stroke="#020202" stroke-linejoin="round" stroke-width="1"/>
      <path id="Path_454" data-name="Path 454" d="M3738.636,1931.67a1.406,1.406,0,0,0-.163,1.414,1,1,0,0,1-.116.989,4.557,4.557,0,0,0-.625,2.98,4.7,4.7,0,0,1-.013,1.1c-.085.451.51.3.483.6-.038.4-.645.117-.713.522a2.928,2.928,0,0,0-.086.815,2.2,2.2,0,0,1-.319,1.612c-.308.467.123.9.388,1.3-.358.57-.865.418-1.34.24-.6-.224-1.039-1-1.848-.463-.156.1-.368-.071-.553-.185-.41-.254-.859-.462-1.316-.06-1.539-1.469-2.648-3.327-4.274-4.72-.385-.329-.421-.623.192-.713.129.081.212.238.416.185.421-.108.815-.018,1.079-.657a2.159,2.159,0,0,0,.309-1.147.387.387,0,0,1,.469-.457c.429.085.612-.189.845-.451.125-.14.329-.619.505.012a.3.3,0,0,0,.5.1c.69-.6,1.543-1.05,1.748-2.1.07-.362.45-.5.81-.137.116.116.266.374.442.255.607-.409,1.45-.135,1.981-.689A1.373,1.373,0,0,1,3738.636,1931.67Z" transform="translate(-3658.659 -1882.422)" fill="#fff" stroke="#020202" stroke-linejoin="round" stroke-width="1"/>
      <path id="Path_455" data-name="Path 455" d="M3738.636,1931.67a1.373,1.373,0,0,0-1.2.342c-.531.554-1.374.28-1.981.689-.176.119-.326-.139-.442-.255-.36-.361-.74-.225-.81.137-.205,1.049-1.058,1.494-1.748,2.1a.3.3,0,0,1-.5-.1c-.176-.631-.38-.152-.505-.012-.233.262-.416.536-.845.451a.387.387,0,0,0-.469.457,2.159,2.159,0,0,1-.309,1.147c-.264.639-.658.549-1.079.657-.2.053-.287-.1-.416-.185,0-.228.007-.457-.321-.449-.482-.39-.3-.917-.229-1.381.06-.372-.04-.442-.369-.556-.478-.167-.986.194-1.387-.067-.675-.439-1.287-.975-1.925-1.47a.967.967,0,0,0,.319-.977.727.727,0,0,1,.359-.81,6.987,6.987,0,0,0,1.867-1.766c.089,0,.227.047.259.006.6-.756,1.266-.5,2.029-.273a3.229,3.229,0,0,0,2.652-.292.985.985,0,0,1,1.164-.039.886.886,0,0,0,.916.039c.465-.253.862-.02,1.311.04,1.285.173,1.922,1.357,3.028,1.794C3738.276,1931,3738.429,1931.4,3738.636,1931.67Z" transform="translate(-3658.662 -1882.426)" fill="#fff" stroke="#020202" stroke-linejoin="round" stroke-width="1"/>
      <path id="Path_456" data-name="Path 456" d="M3726.647,1929.619a6.987,6.987,0,0,1-1.867,1.766.727.727,0,0,0-.359.81.967.967,0,0,1-.319.977c-.145.071-.385.11-.418.216-.283.888-1.264,1.071-1.734,1.759a3.367,3.367,0,0,0-1.679-.37,4.057,4.057,0,0,1-3.1-1.9c.557-.386.35-1.005.282-1.449-.166-1.09.635-1.779.916-2.672.062-.2.322-.128.5-.13.692-.008,1.385-.005,2.078-.01.2,0,.451.061.457-.259,0-.205.1-.368-.064-.625a10.915,10.915,0,0,0-1.725-1.84c-.227-.223-.342-.509.027-.524.746-.029.6-.528.556-.918-.065-.522.122-.618.6-.6,1.2.041,2.4.03,3.6.04,0,1.495.031,2.991-.012,4.486-.018.626.153.912.8.8.234,0,.646.573.634-.234A2.473,2.473,0,0,1,3726.647,1929.619Z" transform="translate(-3658.674 -1882.432)" fill="#fff" stroke="#020202" stroke-linejoin="round" stroke-width="1"/>
      <path id="Path_457" data-name="Path 457" d="M3752.4,1949.315c-.312.021-.405.168-.279.46a3.086,3.086,0,0,0,.2.511c.5.742.041,1.233-.378,1.8-.284.381-.382.056-.555-.057-.1.53-.573.987-.217,1.559a5.307,5.307,0,0,1-1.56-2.455.286.286,0,0,1-.014-.2c.1-.212.592-.266.264-.642-.638-.731-1.088-1.677-2.143-1.939-.2-.049-.434-.034-.52.222a3.022,3.022,0,0,1-.953,1.234,2.048,2.048,0,0,1-.87.51c-.364.1-.637.313-.2.724a5.289,5.289,0,0,1,.78.961c.225.346.3.7-.271.814-.467.093-.732.572-1.268.6-.412.017-.689.051-.684-.467,0-.107-.069-.309-.1-.308-.6.01-.845-.733-1.454-.694l.008.008c.077-.5-.282-.79-.541-1.131-.1-.129-.269-.193-.357-.127-.554.417-.855.083-1.3-.264-.621-.488-.614.244-.775.581-.246-.08-.22-.275-.225-.454a5.36,5.36,0,0,0,.5-1.846c.064-.265.079-.379-.093-.567-.5-.548-.362-1.049.328-1.207.171-.039.211-.148.243-.285.6.292,1.018.874,1.7,1.059.159.043.3.289.377.472a1.05,1.05,0,0,0,1.728.391c.717-.568,1.723-.633,2.3-1.338.784-.962,1.84-.508,2.776-.673a.61.61,0,0,1,.64.327.843.843,0,0,0,.536.366,2.845,2.845,0,0,1,1.444,1.126A2.941,2.941,0,0,0,3752.4,1949.315Z" transform="translate(-3658.642 -1882.404)" fill="#fff" stroke="#020202" stroke-linejoin="round" stroke-width="1"/>
      <path id="Path_458" data-name="Path 458" d="M3806.6,1962.495c-.469-.221-.246-.692-.353-1.038a2.893,2.893,0,0,1,.445-3.076,1.5,1.5,0,0,0,.468-1.139.773.773,0,0,1,.58.105,3.32,3.32,0,0,0,1.683.684.524.524,0,0,1,.415.208,10.365,10.365,0,0,0,2.361,2.135,3.03,3.03,0,0,1,.559.832c-.11,1.136-.9,1.949-1.4,2.9a18.68,18.68,0,0,0-.824,1.96c-.35.9-.742,1.139-1.635.927a2.431,2.431,0,0,0-1.8.1.769.769,0,0,1-1.094-.142c-.043-.317.19-.524.314-.772a2.466,2.466,0,0,0,.3-1.524.424.424,0,0,1,.263-.5A1,1,0,0,0,3806.6,1962.495Z" transform="translate(-3658.556 -1882.39)" fill="#fff" stroke="#020202" stroke-linejoin="round" stroke-width="1"/>
      <path id="Path_459" data-name="Path 459" d="M3739.962,1946.643c-.032.137-.072.246-.243.285-.69.158-.829.659-.328,1.207.172.188.157.3.093.567a5.36,5.36,0,0,1-.5,1.846c-.206-.233-.582-.365-.392-.785-.306,0-.047.573-.473.336-.352-.2-.986-.131-.912-.747.054-.449.291-.868-.039-1.307a3.469,3.469,0,0,0-1.519-1.009c-.366-.158-.747-.216-.694-.769.026-.264-.193-.2-.327-.078a2.128,2.128,0,0,0-.6.717,2.323,2.323,0,0,0-1.2-.988,1.272,1.272,0,0,1-.509-1.728c.413-.571.279-.847-.32-1.006.048-.32.434-.353.413-.656.457-.4.906-.194,1.316.06.185.114.4.288.553.185.809-.535,1.25.239,1.848.463.475.178.982.33,1.34-.24.308.527.325,1.179.733,1.667A9.8,9.8,0,0,0,3739.962,1946.643Z" transform="translate(-3658.655 -1882.409)" fill="#fff" stroke="#020202" stroke-linejoin="round" stroke-width="1"/>
      <path id="Path_460" data-name="Path 460" d="M3765.956,1924.626c.031-.508-.462-.738-.521-1.194-.064-.495.085-1.1-.41-1.5a.236.236,0,0,1,.064-.4c.353-.18.527-.447.166-.8-.033-.033-.05-.141-.026-.163.606-.567.232-1.228.122-1.821s.167-.711.6-.717a4.371,4.371,0,0,1,2.945.624c.123.1.265.041.4,0,.35-.115.56.044.577.378.037.757.558.641,1.029.594.241-.024.546-.212.645.127.092.316-.275.339-.469.462.059.217.215.2.385.179a2.3,2.3,0,0,1,1.9,1.027c.406.431-.051.731-.277,1.023-.082.1-.324.1-.257.322.047.153.186.311-.092.355-.164.026-.367-.014-.4-.19-.188-.9-.957-.544-1.476-.655-.232-.05-.516.093-.781-.07a.419.419,0,0,0-.554.127c-.463.567-.9.735-1.571.221-.322-.248-.688.059-.869.464A4.875,4.875,0,0,1,3765.956,1924.626Z" transform="translate(-3658.61 -1882.484)" fill="#fff" stroke="#020202" stroke-linejoin="round" stroke-width="1"/>
      <path id="Path_461" data-name="Path 461" d="M3773.285,2125.611c-.318.126-.554.1-.546-.319.037-1.953-.087-3.909.067-5.861a2.084,2.084,0,0,1,1.024,1.317c-.272.165-.254-.391-.512-.143-.078.075-.172.206-.156.292.052.28.3.218.5.235.137.012.329-.01.36.141.163.813.994,1.026,1.418,1.606a2.332,2.332,0,0,0,1.069.59,21.5,21.5,0,0,0,2.439,1.243,4.167,4.167,0,0,0,1.417.128c.225-.011.663-.156.63.134s-.128.76-.66.823a8.932,8.932,0,0,0-1.821.117c-1.331.427-2.594-.445-3.938-.275A10.841,10.841,0,0,1,3773.285,2125.611Z" transform="translate(-3658.599 -1882.186)" fill="#fff" stroke="#020202" stroke-linejoin="round" stroke-width="1"/>
      <path id="Path_462" data-name="Path 462" d="M3725.181,1929.182c-.646.109-.817-.177-.8-.8.043-1.495.013-2.991.012-4.486.082-.336.086-.756.628-.371.221.157.351-.169.443-.283a2.033,2.033,0,0,0,.356-.8c.072-.311.175-.519.531-.495s.448-.326.733-.519a2.085,2.085,0,0,0,.612,1.381,13.131,13.131,0,0,0-.536,1.784c-.013.1-.006.214-.163.258-.46.126-.393.5-.368.847a2.665,2.665,0,0,1-1,2.735A.967.967,0,0,0,3725.181,1929.182Z" transform="translate(-3658.667 -1882.484)" fill="#fff" stroke="#020202" stroke-linejoin="round" stroke-width="1"/>
      <path id="Path_463" data-name="Path 463" d="M3721.95,1935.147c.47-.688,1.451-.871,1.734-1.759.033-.106.273-.145.418-.216.638.495,1.25,1.031,1.925,1.47.4.261.909-.1,1.387.067.329.114.429.184.369.556-.074.464-.253.991.229,1.381a2.78,2.78,0,0,1-1.954.216,3.327,3.327,0,0,1-1.026-.372,7.358,7.358,0,0,0-1.914-.678A4.219,4.219,0,0,1,3721.95,1935.147Z" transform="translate(-3658.669 -1882.422)" fill="#fff" stroke="#020202" stroke-linejoin="round" stroke-width="1"/>
      <path id="Path_464" data-name="Path 464" d="M3754.272,1923.84c-.306-.052-.823-.347-1.2.03-.437.439-.735.076-1.13.02a1.465,1.465,0,0,1-1.153-.575.756.756,0,0,0-.542-.393c-.2-.02-.423-.092-.429-.364a.553.553,0,0,1,.415-.573,4.731,4.731,0,0,1,3.358.431,2.393,2.393,0,0,0,.872.359c.412.073.468.506.5.8C3755,1923.84,3754.652,1923.836,3754.272,1923.84Z" transform="translate(-3658.632 -1882.484)" fill="#fff" stroke="#020202" stroke-linejoin="round" stroke-width="1"/>
      <path id="Path_465" data-name="Path 465" d="M3784.109,2092.168c.192-.354.487-.7.131-1.114a.171.171,0,0,1,.013-.245.481.481,0,0,0-.074-.726c-.114.318-.839-.106-.684.588.05.221-.225.411-.475.4-.29-.018-.675.2-.837-.233-.063-.167-.111-.3-.309-.3-.731-.007-.912-.472-.8-1.066.142-.781-.3-1.463-.294-2.213.009-.789.3-1,1.023-.736.51.187,1.132.122,1.484.662-.576.1-1.013-.422-1.592-.343-.363.05-.751-.085-.479.584a6,6,0,0,1,.121,1.578c.032.3-.218.75.095.877.5.2,1.034.649,1.577.365.32-.167.652-.209.963-.347.148-.066.259-.119.424.033a1.867,1.867,0,0,1-.02,2.215C3784.312,2092.184,3784.2,2092.16,3784.109,2092.168Z" transform="translate(-3658.592 -1882.186)" fill="#fff" stroke="#020202" stroke-linejoin="round" stroke-width="1"/>
      <path id="Path_466" data-name="Path 466" d="M3791.023,1943.127a2.294,2.294,0,0,0-.245,1.611.636.636,0,0,1-.647.771,12.769,12.769,0,0,1-1.312.02c-.112,0-.255.014-.3-.116-.055-.163.09-.275.2-.313.807-.282.968-.717.4-1.4-.113-.136.1-.213.211-.275A2.41,2.41,0,0,1,3791.023,1943.127Z" transform="translate(-3658.583 -1882.41)" fill="#fff" stroke="#020202" stroke-linejoin="round" stroke-width="1"/>
      <path id="Path_467" data-name="Path 467" d="M3757.173,2116.092a.845.845,0,0,0,1.158.063c.134-.08.248-.225.424-.135a.2.2,0,0,1,.057.18c-.044.181-.111.359-.32.411-.088.022-.183.012-.274.026-.687.107-.806.341-.515.973a1.2,1.2,0,0,1,.045.339c-.218-.149-.316.349-.589.087s.066-.355.086-.531c.062-.529-.322-1.085-.748-.98A.654.654,0,0,1,3757.173,2116.092Z" transform="translate(-3658.625 -1882.186)" fill="#fff" stroke="#020202" stroke-linejoin="round" stroke-width="1"/>
      <path id="Path_468" data-name="Path 468" d="M3757.177,2114.335c-.168-.78.63-1,.908-1.52.076-.143.336-.083.263.168a.662.662,0,0,0,.179.739c-.339.217-.685.053-1.034.221.427.413.254.919.21,1.394-.021.239-.342.175-.5.29.38-.49-.32-.794-.212-1.237a.321.321,0,0,1,.115.012c.018.13.029.275.207.273a.172.172,0,0,0,.125-.11C3757.456,2114.38,3757.294,2114.378,3757.177,2114.335Z" transform="translate(-3658.625 -1882.186)" fill="#fff" stroke="#020202" stroke-linejoin="round" stroke-width="1"/>
      <path id="Path_469" data-name="Path 469" d="M3781.686,2125.424a2.478,2.478,0,0,1,2.21-.361c.088.026.193.024.21.129a.237.237,0,0,1-.071.176A4.469,4.469,0,0,1,3781.686,2125.424Z" transform="translate(-3658.592 -1882.186)" fill="#fff" stroke="#020202" stroke-linejoin="round" stroke-width="1"/>
      <path id="Path_470" data-name="Path 470" d="M3758.626,2099.132c.272.04.268.377.2.4-.531.15-.382.873-.9,1.014-.273.073-.182.328-.2.524-.016.212.094.483-.248.548-.028-.133-.027-.287-.208-.318-.24-.041-.425-.081-.012-.17a.29.29,0,0,0,.118-.057c-.294-1.062.816-1.149,1.2-1.737A.667.667,0,0,0,3758.626,2099.132Z" transform="translate(-3658.625 -1882.186)" fill="#fff" stroke="#020202" stroke-linejoin="round" stroke-width="1"/>
      <path id="Path_471" data-name="Path 471" d="M3748.113,1948.984a3.573,3.573,0,0,0,.473.553.581.581,0,0,1,.176.793c-.157.38-.54-.252-.713.14-.156-.084-.108-.23-.116-.363C3747.915,1949.771,3748.213,1949.519,3748.113,1948.984Z" transform="translate(-3658.637 -1882.403)" fill="#fff" stroke="#020202" stroke-linejoin="round" stroke-width="1"/>
      <path id="Path_472" data-name="Path 472" d="M3758.948,2096.489a.92.92,0,0,1,0,1.109,1.58,1.58,0,0,0-.238-.128c-.23-.08-.621.092-.626-.335,0-.326.287-.423.56-.5A2.078,2.078,0,0,0,3758.948,2096.489Z" transform="translate(-3658.624 -1882.186)" fill="#fff" stroke="#020202" stroke-linejoin="round" stroke-width="1"/>
      <path id="Path_473" data-name="Path 473" d="M3759.03,2093.949c-.291.39-.2.756-.313,1.11.092-.519-.936-.248-.6-.906C3758.3,2093.795,3758.665,2093.924,3759.03,2093.949Z" transform="translate(-3658.624 -1882.186)" fill="#fff" stroke="#020202" stroke-linejoin="round" stroke-width="1"/>
      <path id="Path_474" data-name="Path 474" d="M3742.175,1951.935a1.159,1.159,0,0,0-.011.608c.036.154.276.344.009.466a.48.48,0,0,1-.559-.157.407.407,0,0,1-.064-.557.889.889,0,0,1,.633-.352Z" transform="translate(-3658.646 -1882.399)" fill="#fff" stroke="#020202" stroke-linejoin="round" stroke-width="1"/>
      <path id="Path_475" data-name="Path 475" d="M3759.128,2120.528c.439.025.432.569.794.683,0,.113-.071.3-.107.268-.193-.176-.581-.055-.639-.41C3759.146,2120.891,3759.143,2120.709,3759.128,2120.528Z" transform="translate(-3658.623 -1882.186)" fill="#fff" stroke="#020202" stroke-linejoin="round" stroke-width="1"/>
      <path id="Path_476" data-name="Path 476" d="M3776.187,2036.6a2.59,2.59,0,0,0-.569.229.8.8,0,0,1-1.21-.752,11.412,11.412,0,0,0-.48-2.684,18.24,18.24,0,0,0-.827-2.187c-.2-.58-.855-1.113-.583-1.878a1.171,1.171,0,0,1,.161-.39c.4-.532-.039-1.3.476-1.822a.28.28,0,0,0-.1-.165c-1.2-.623-1.118-1.869-1.36-2.917-.178-.772-.731-1.333-.922-2.072-.107-.444-.66-.966.217-1.239-.1-.691.771-1,.664-1.733a.964.964,0,0,1,.481-.915c.6-.317.2-.539-.03-.754a1.62,1.62,0,0,0-.6-.31c-.692-.221-.5-.729-.337-1.107a.649.649,0,0,0-.014-.728.94.94,0,0,1,.02-.986,6.035,6.035,0,0,1,.87-1.453.6.6,0,0,0,.085-.652,4.688,4.688,0,0,1,.236-3.812.928.928,0,0,0,.04-.871,11.661,11.661,0,0,0-1.129-2.088c-.323-.381-.168-1.01-.807-1.3.54-.254,1.009-.064,1.442-.161.069,0,.155-.024.205.008.826.525,1.276-.009,1.723-.591.214-.278.362-.6.88-.359.247.113.462-.417.753-.607.8-.519,1.506-1.195,2.34-1.64a5.024,5.024,0,0,1,1.7-.256c.035-.005.074.05.116.068.293.133.638-.532.8-.065a2.318,2.318,0,0,1,0,1.629,1.119,1.119,0,0,0-.007.877,2.043,2.043,0,0,1,.1,1.286,2.809,2.809,0,0,0,1.111,2.473,3.935,3.935,0,0,1,.7.657c.558.559,1.055.913,1.83.485.181-.1.221.112.328.175.886.514,1.746,1.079,2.66,1.534a2.875,2.875,0,0,1,1.494,1.149c.162.3.69.174,1.04.125a2.027,2.027,0,0,1,1.909.659c.271.3.6.506.328,1.005-.2.362.316.637.246,1.024a10.4,10.4,0,0,1-.24,1.842c-.015.041-.027.11-.005.132.719.736.411,1.775.777,2.6.182.412.66.48,1.079.493.855.025,1.712.047,2.566.015.555-.021.68.231.48.657-.634,1.347.141,2.006.933,2.569a1.409,1.409,0,0,1,.569.574,3.086,3.086,0,0,1,.207,2.633,24.513,24.513,0,0,1-.828,2.468c-.15.057-.512-.03-.419.178.277.621-.242.282-.392.376l-.009-.005a7.553,7.553,0,0,0-.928-.99.824.824,0,0,0-1.032-.1,7.162,7.162,0,0,0-2.337.034,30.125,30.125,0,0,1-3.491.788c-.205.051-.231.151-.281.313-.406,1.3-1.411,2.432-1.144,3.936.012.067-.1.147-.118.229a25.579,25.579,0,0,0-.707,2.743c-.718-1.193-1.878-.532-2.846-.667-.2-.029-.3.19-.381.357a6.909,6.909,0,0,0-.671,1.72c-.314-.024-.309-.263-.371-.481a1.543,1.543,0,0,0-1.7-1.34c-.811,0-1.6.065-2.189-.679-.2-.246-.4-.129-.415.217-.01.231-.063.484-.318.567C3777,2034.984,3776.617,2035.808,3776.187,2036.6Z" transform="translate(-3658.584 -1882.316)" fill="#fff" stroke="#020202" stroke-linejoin="round" stroke-width="1"/>
      <path id="Path_477" data-name="Path 477" d="M3786.854,2034.98a25.579,25.579,0,0,1,.707-2.743c.021-.082.13-.162.118-.229-.267-1.5.738-2.632,1.144-3.936.05-.162.076-.262.281-.313a30.125,30.125,0,0,0,3.491-.788,7.162,7.162,0,0,1,2.337-.034,7.156,7.156,0,0,0,1.96,1.086l.009.005c.409.276.084.9.551,1.152a4,4,0,0,0,.327,1.352,7.159,7.159,0,0,1-.026,3.758c-.054.193-.018.4.246.385.79-.06,1.495.451,2.292.328.09-.014.218.04.272-.005.705-.587,1.363.082,2.027.134.461.037.674.727.674,1.284a9.248,9.248,0,0,0,.493,2.783c.267.844.416.837,1.378.433.849-.356,1.159-.14,1.205.78a9.909,9.909,0,0,1-.528,3.342,2.463,2.463,0,0,0-.027.616,7.445,7.445,0,0,0-.3,1.96,2.205,2.205,0,0,1-1.24,1.7,2.182,2.182,0,0,0-.847,1.012c-.1.232-.268.521-.674.247-.3-.2-.754-.5-.9.209a.212.212,0,0,1-.261.17c-.954-.351-2.02.046-2.957-.468a2.928,2.928,0,0,0-1.793-.328c-.147.018-.349.084-.44-.089-.08-.151.009-.293.122-.429a3.411,3.411,0,0,0,.748-1.694c.13-.817.876-1.377,1.152-2.167.068-.195.438-.349.3-.572-.2-.325-.288-.713-.706-.935-.9-.481-1.887-.781-2.763-1.321a6.064,6.064,0,0,1-1.032-.848,5.414,5.414,0,0,0-2.653-1.117,1.3,1.3,0,0,1-.673-.311c-1.024-1.217-2.7-1.83-3.216-3.535C3787.55,2035.508,3787.012,2035.379,3786.854,2034.98Z" transform="translate(-3658.569 -1882.291)" fill="#fff" stroke="#020202" stroke-linejoin="round" stroke-width="1"/>
      <path id="Path_478" data-name="Path 478" d="M3801.064,2054.144a26.615,26.615,0,0,1,1.915-2.569c.206-.268.44-.551.852-.489-.527,1.174-1.766,1.792-2.315,2.954C3801.444,2054.192,3801.223,2054.133,3801.064,2054.144Z" transform="translate(-3658.566 -1882.277)" fill="#fff" stroke="#020202" stroke-linejoin="round" stroke-width="1"/>
      <path id="Path_479" data-name="Path 479" d="M3797.452,2029.18c-.467-.248-.142-.876-.551-1.152.15-.094.669.245.392-.376-.093-.208.269-.121.419-.178a1.29,1.29,0,0,0,.208.746C3798.293,2028.83,3798.191,2028.993,3797.452,2029.18Z" transform="translate(-3658.573 -1882.307)" fill="#fff" stroke="#020202" stroke-linejoin="round" stroke-width="1"/>
      <path id="Path_480" data-name="Path 480" d="M3756.48,1973.327l-.127-.138Z" transform="translate(-3658.627 -1882.374)" fill="#fff" stroke="#020202" stroke-linejoin="round" stroke-width="1"/>
      <path id="Path_481" data-name="Path 481" d="M3756.341,1973.173l-.151-.1A.121.121,0,0,1,3756.341,1973.173Z" transform="translate(-3658.627 -1882.374)" fill="#fff" stroke="#020202" stroke-linejoin="round" stroke-width="1"/>
      <path id="Path_482" data-name="Path 482" d="M3794.11,1961.1l.109-.234c.043.039.124.077.124.116,0,.168-.1.173-.23.12Z" transform="translate(-3658.578 -1882.389)" fill="#fff" stroke="#020202" stroke-linejoin="round" stroke-width="1"/>
      <path id="Path_483" data-name="Path 483" d="M3806.6,1962.495a1,1,0,0,1,.282,1.664C3807.145,1963.544,3806.7,1963.05,3806.6,1962.495Z" transform="translate(-3658.561 -1882.386)" fill="#fff" stroke="#020202" stroke-linejoin="round" stroke-width="1"/>
      <path id="Path_484" data-name="Path 484" d="M3796.892,2028.023a7.156,7.156,0,0,1-1.96-1.086.824.824,0,0,1,1.032.1A7.553,7.553,0,0,1,3796.892,2028.023Z" transform="translate(-3658.575 -1882.308)" fill="#fff" stroke="#020202" stroke-linejoin="round" stroke-width="1"/>
    </g>
  </g>
</svg>
