<svg xmlns="http://www.w3.org/2000/svg" width="455.426" height="184.886" viewBox="0 0 455.426 184.886">
  <g id="Group_172" data-name="Group 172" transform="translate(-668.074 -43)">
    <g id="Group_171" data-name="Group 171" transform="translate(668.074 43)">
      <g id="Group_169" data-name="Group 169">
        <path id="Path_562" data-name="Path 562" d="M1359.2,272.859c6.258,19.442,5.5,30.432,2.7,34.236-1.767,2.4-10.12,10.6-43.411,15.247-29.324,4.1-66.007,3.75-101.482,3.417-55.852-.527-108.648-1.023-145.747,14.92-27.173,10.3-47.926,27.571-60.077,50.033a94.809,94.809,0,0,0-11.249,39.035H1096.3a39.4,39.4,0,0,1,7.855-3.814l1.47-.541,1.429-.638c18.965-8.474,68.939-8,109.094-7.626,38.81.367,78.941.744,114.985-4.29,49.8-6.957,83.942-23.831,104.365-51.586,22.227-30.206,25.821-69.365,10.682-116.391Z" transform="translate(-999.936 -244.86)" fill="#defa2e"/>
      </g>
      <g id="Group_170" data-name="Group 170" transform="translate(57.557 43.882)">
        <path id="Path_563" data-name="Path 563" d="M1095.785,410.438l2.119,12.774,2,8.768-6.658,1.371-10.388-10.367-.466.064.541,3.247,1.968,8.775-6.628,1.365-4.007-19.454-.54-2,7.088-1.46,10.03,10.185.406-.051-2.427-11.783Z" transform="translate(-1073.723 -325.163)"/>
        <path id="Path_564" data-name="Path 564" d="M1124.728,425.189l-1.761.005-3.395.376-.858,5.02-7.269.671,5-22.485,8.267-.764,8.974,21.2-7.269.671Zm-1.843-5.3-1.23-3.442-.53.049-.61,3.612Z" transform="translate(-1082.02 -324.629)"/>
        <path id="Path_565" data-name="Path 565" d="M1159,417.911c2.472-.113,4.825,1.974,4.988,5.541l.193,4.225-6.571.3-.052-1.126-.091-.623c0-.031-.018-.406-.021-.469-.157-3.442-1.6-4.725-2.839-5.17l-2.91.133-1.378.062.345,7.541-5.289.241-1.314.06-.281-6.133-.45-9.857-.527-5.369-.055-.53,6.916-.316,5.6-.256c7.291-.332,7.987,3.931,8.194,5.709l0,.031s.565,4.835-4.5,5.066Zm-9.057-5.388.122,2.692,4.757-.218c2.691-.123,2.7-2.694,0-2.7a.65.65,0,0,0-.282.013Z" transform="translate(-1088.906 -324.219)"/>
        <path id="Path_566" data-name="Path 566" d="M1190.809,417.217c2.475-.03,4.757,2.136,4.8,5.707l.052,4.229-6.579.08-.013-1.128-.07-.626c0-.032-.005-.407-.006-.47-.042-3.445-1.437-4.776-2.665-5.262l-2.913.035-1.379.017.092,7.549-5.294.065-1.316.016-.075-6.14-.119-9.868-.348-5.385-.038-.532,6.924-.084,5.608-.068c7.3-.089,7.853,4.2,8,5.981v.031s.4,4.851-4.671,4.913Zm-8.874-5.688.033,2.694,4.762-.058c2.694-.033,2.789-2.6.093-2.7a.64.64,0,0,0-.282,0Z" transform="translate(-1095.986 -324.044)"/>
        <path id="Path_567" data-name="Path 567" d="M1219.777,422.565l-1.753-.172-3.415.034-1.359,4.906-7.3-.064,7.24-21.868,8.3.073,6.794,21.991-7.3-.064Zm-1.3-5.463-.878-3.548-.533,0-.97,3.532Z" transform="translate(-1102.808 -324.055)"/>
        <path id="Path_568" data-name="Path 568" d="M1254.067,405.615l-.011,6.954-2.505-.348-4.51-.289-.229,6.61.143,8.991-6.767-.011.024-15.758-4.324.087-2.444.341.01-6.61Z" transform="translate(-1108.855 -324.095)"/>
        <path id="Path_569" data-name="Path 569" d="M1272.128,405.434l-.344,12.944.266,8.989-6.767.082-.266-21.929Z" transform="translate(-1115.8 -324.062)"/>
        <path id="Path_570" data-name="Path 570" d="M1301.314,404.471l-6.2,22.151-8.3.283-7.825-21.67,7.294-.25,4.2,13.678.5-.017,3.034-13.925Z" transform="translate(-1118.875 -323.85)"/>
        <path id="Path_571" data-name="Path 571" d="M1319.97,420.47l-1.761-.036-3.4.3-.977,5-7.282.5,5.533-22.361,8.282-.567,8.47,21.4-7.282.5Zm-1.717-5.346-1.149-3.47-.531.037-.7,3.6Z" transform="translate(-1124.935 -323.592)"/>
        <path id="Path_572" data-name="Path 572" d="M1339.62,417.409l-.21-1.836a44.133,44.133,0,0,0,12.243.385c1.087-.143,1.564-.363,1.521-.926-.011-.567-.844-.9-1.945-1.1-2.232-.4-6.178-.864-7.49-1.229a14.634,14.634,0,0,1-3.4-1.133c-1.777-1.03-2.248-3.654-2.248-3.654-.995-5.9,4.573-7.043,7.182-7.385l12.856-1.685.489,5.906.209,1.836a34.711,34.711,0,0,0-11.8-.158c-1.2.221-1.982.544-1.954,1.236.038.532.482.789,1.871,1.018,1.9.288,3.523.612,4.877.814,3.028.456,4.923.934,6.324,1.982a5.3,5.3,0,0,1,2.112,3.576c.96,5.876-5.176,6.3-6.138,6.427l-14,1.836Z" transform="translate(-1131.848 -322.612)"/>
        <path id="Path_573" data-name="Path 573" d="M1401.8,390.309l2.214,12.758,2.031,8.76-6.617,1.414-1.754-8.211-6.311,1.348,1.877,8.185-6.617,1.413-4.583-21.446,6.955-1.486,1.449,8.276,6.157-1.316-1.755-8.211Z" transform="translate(-1141.541 -320.735)" fill="none" stroke="#000" stroke-width="2"/>
        <path id="Path_574" data-name="Path 574" d="M1430.925,400.691l-1.725.354-3.253,1.041.152,5.089-6.991,2.1.453-23.029,7.952-2.385,12.989,19-6.992,2.1Zm-2.856-4.834-1.888-3.13-.51.153.117,3.661Z" transform="translate(-1149.694 -319.316)" fill="none" stroke="#000" stroke-width="2"/>
        <path id="Path_575" data-name="Path 575" d="M1450.277,374.291l9.786-4.282,2.474,5.653-8.937,3.877c-1.607.7-4.057,2.527-2.544,6.14l.176.4c1.626,3.562,4.629,3,6.237,2.3.073-.066,8.8-3.884,8.911-3.934l2.589,5.6-9.9,4.332c-7.059,3.089-11.846-1.21-13.378-4.711a18.561,18.561,0,0,1-1.679-4.462C1443.365,381.624,1444.48,376.827,1450.277,374.291Z" transform="translate(-1155.136 -316.27)" fill="none" stroke="#000" stroke-width="2"/>
        <path id="Path_576" data-name="Path 576" d="M1486.152,361.576l.47.547c1.674-1.318,5.636-2,8.7,1.885l3.5,4.455-5.193,4.087-.7-.887-.436-.453c-.039-.049-.271-.345-.292-.369-3.892-4.948-6.986-1.637-6.986-1.637l-3.52,2.769,4.935,6.12-5.342,4.2-13.556-17.23,5.613-4.415,4.6,6.5,1.648-1.3-.66-9.6,6.474-5.093Z" transform="translate(-1160.391 -312.124)" fill="none" stroke="#000" stroke-width="2"/>
        <path id="Path_577" data-name="Path 577" d="M1500.238,327.473l6.208,3.463-5.656,9.11-1.01,1.875,1.064.665,4.151-7.44,5.36,2.991-4.391,7.484,1.136.6,2.465-3.969,3.91-7.395,5.935,3.312-9.6,17.2-19.173-10.7Z" transform="translate(-1165.429 -306.914)" fill="none" stroke="#000" stroke-width="2"/>
        <path id="Path_578" data-name="Path 578" d="M1519.065,307.181c.563-2.41,3.21-4.108,6.688-3.3l4.118.961-1.494,6.406-1.1-.257-.624-.081-.458-.107c-3.355-.782-4.98.254-5.747,1.329l-.661,2.837-.314,1.342,7.353,1.715-1.2,5.155-.3,1.282-5.979-1.4-9.609-2.242-5.311-.95-.526-.09,1.573-6.742,1.274-5.461c1.658-7.108,5.952-6.621,7.719-6.337l.031.007s4.807.768,3.654,5.71Zm-7.644,7.255,2.623.612,1.082-4.637c.613-2.623-1.861-3.329-2.594-.734a.632.632,0,0,0-.065.275Z" transform="translate(-1168.345 -301.116)" fill="none" stroke="#000" stroke-width="2"/>
      </g>
    </g>
  </g>
</svg>
