<svg xmlns="http://www.w3.org/2000/svg" width="310.755" height="105.275" viewBox="0 0 310.755 105.275">
  <path id="Path_624" data-name="Path 624" d="M0,37.3c0,6.676,2.4,11.839,7.3,15.488s11.216,5.43,18.782,5.43a29.848,29.848,0,0,0,16.557-4.451c4.54-3.026,6.854-7.477,6.854-13.441,0-9.168-5.341-15.31-17.091-17.358L21.809,21.1c-3.472-.623-5.608-1.6-5.608-4.184,0-3.115,2.848-5.074,7.833-5.074,5.786,0,9.97,2.67,10.415,8.456l13.886-.267C48.068,7.655,39.611,0,24.212,0,10.326,0,1.335,6.854,1.335,18.248c0,9.7,6.409,14.954,15.578,16.646l10.237,1.78c4.273.8,7.566,1.335,7.566,4.629,0,3.116-3.383,4.985-8.634,4.985-6.142,0-11.75-2.4-12.195-9.436Zm84.029,5.7c-1.335,3.116-3.828,4.451-7.744,4.451-4.362,0-7.922-2.314-8.278-7.21H95.868V36.229a20.29,20.29,0,0,0-5.252-13.886c-3.472-4.006-8.456-5.964-15.043-5.964a21.282,21.282,0,0,0-15.488,6.142,20.655,20.655,0,0,0-6.142,15.4c0,6.32,2.047,11.216,6.142,14.865s9.347,5.43,15.667,5.43c10.415,0,17.8-5.163,19.85-14.153Zm-15.845-9.7c.445-3.65,2.581-6.587,7.21-6.587a6.453,6.453,0,0,1,6.765,6.587Zm70.677-1.335c0-5.519-1.78-9.525-5.252-11.928a22.182,22.182,0,0,0-13-3.65c-11.839,0-18.515,6.142-19.672,14.776l13.352.89c.623-2.937,2.225-4.985,5.43-4.985,3.472,0,4.985,1.958,4.985,5.252v.623L113.582,34.8c-8.545,1.513-14.153,4.9-14.153,12.462,0,6.765,5.074,10.771,12.818,10.771,6.32,0,10.949-2.4,13.174-7.032,1.335,4.54,5.163,7.032,10.059,7.032a15.424,15.424,0,0,0,8.99-2.581V47.8a8.21,8.21,0,0,1-3.2.623c-1.513,0-2.4-.89-2.4-2.937Zm-14.153,8.634c0,5.074-3.383,8.189-7.388,8.189-2.4,0-4.006-1.335-4.006-3.383,0-2.581,2.047-3.65,5.519-4.362l5.875-1.068ZM187.82,24.212c-1.691-4.629-5.341-7.833-12.373-7.833-5.964,0-10.237,2.67-12.373,7.032V17.447h-14.42v39.7h14.42V37.653c0-5.964,1.691-9.881,6.409-9.881,4.362,0,5.43,2.848,5.43,8.278v21.1h14.42V37.653c0-5.964,1.691-9.881,6.409-9.881,4.362,0,5.341,2.848,5.341,8.278v21.1H215.5V32.223a19.864,19.864,0,0,0-3.026-10.949c-1.958-3.294-5.7-4.9-11.127-4.9C194.674,16.379,189.956,19.85,187.82,24.212ZM264.194,37.3a20.117,20.117,0,0,0-6.053-15.043c-4.006-3.917-9.257-5.875-15.667-5.875q-9.747,0-15.756,5.875c-4.006,3.917-5.964,8.9-5.964,15.043s1.958,11.216,5.964,15.132c4.006,3.828,9.257,5.786,15.756,5.786,6.409,0,11.661-1.958,15.667-5.786A20.318,20.318,0,0,0,264.194,37.3Zm-28.93,0c0-5.964,2.136-10.059,7.21-10.059,4.985,0,7.21,4.095,7.21,10.059s-2.225,10.059-7.21,10.059C237.4,47.356,235.265,43.261,235.265,37.3Zm31.778,6.943c.445,4.807,2.492,8.367,6.142,10.593a26.629,26.629,0,0,0,13.8,3.383c11.3,0,18.426-4.9,18.426-13.174,0-7.744-5.163-11.75-14.064-13.174L283.6,30.532a2.3,2.3,0,0,1-2.4-2.225c0-1.78,1.6-2.848,4.362-2.848,4.362,0,7.032,1.78,7.477,4.629l11.839-.356c-.8-8.189-7.655-13.352-19.049-13.352-11.038,0-17.981,5.608-17.981,13.441,0,8.1,5.074,11.216,14.687,12.729l5.875.89c2.759.445,3.65,1.513,3.65,3.026s-1.691,2.759-4.9,2.759c-4.362,0-7.121-1.869-7.566-5.163Z" transform="translate(0 47.776) rotate(-9)" fill="#010704"/>
</svg>
