<svg xmlns="http://www.w3.org/2000/svg" width="510.514" height="135.885" viewBox="0 0 510.514 135.885">
  <path id="Path_625" data-name="Path 625" d="M15.132,56.079V33.914H37.475V56.079H52.607V0H37.475V21.63H15.132V0H0V56.079ZM97.916,30.888c0-5.519-1.78-9.525-5.252-11.928a22.182,22.182,0,0,0-13-3.65C67.829,15.31,61.153,21.452,60,30.087l13.352.89c.623-2.937,2.225-4.985,5.43-4.985,3.472,0,4.985,1.958,4.985,5.252v.623L72.636,33.736C64.09,35.25,58.482,38.632,58.482,46.2c0,6.765,5.074,10.771,12.818,10.771,6.32,0,10.949-2.4,13.174-7.032,1.335,4.54,5.163,7.032,10.059,7.032a15.424,15.424,0,0,0,8.99-2.581V46.732a8.21,8.21,0,0,1-3.2.623c-1.513,0-2.4-.89-2.4-2.937ZM83.762,39.522c0,5.074-3.383,8.189-7.388,8.189-2.4,0-4.006-1.335-4.006-3.383,0-2.581,2.047-3.65,5.519-4.362L83.762,38.9Zm21.808-3.294q0,9.48,6.142,15.221c4.184,3.828,9.346,5.7,15.577,5.7,5.964,0,10.593-1.691,13.886-4.985a19.8,19.8,0,0,0,5.7-12.284l-11.839-.89c-.979,4.9-3.383,7.3-7.566,7.3-4.362,0-7.388-2.937-7.388-10.059s3.026-10.059,7.388-10.059c4.184,0,6.587,2.314,7.566,7.21l11.839-.8a19.787,19.787,0,0,0-5.7-12.195q-4.94-5.074-13.886-5.074A22.194,22.194,0,0,0,111.713,21.1C107.618,24.924,105.571,30,105.571,36.229Zm61.242,7.3,3.472-3.561,11.394,16.112h16.2L180.966,31.956l16.379-15.577H180.432L166.813,30.087V0h-14.42V56.079h14.42Zm59.551-1.6c-1.335,3.116-3.828,4.451-7.744,4.451-4.362,0-7.922-2.314-8.278-7.21H238.2V35.161a20.29,20.29,0,0,0-5.252-13.886c-3.472-4.006-8.456-5.964-15.043-5.964a21.282,21.282,0,0,0-15.488,6.142,20.655,20.655,0,0,0-6.142,15.4c0,6.32,2.047,11.216,6.142,14.865s9.346,5.43,15.667,5.43c10.415,0,17.8-5.163,19.85-14.153Zm-15.845-9.7c.445-3.65,2.581-6.587,7.21-6.587a6.453,6.453,0,0,1,6.765,6.587Zm64.357-15.4a9.5,9.5,0,0,0-5.519-1.513,11.656,11.656,0,0,0-10.86,8.1V16.379h-14.42v39.7H258.5V37.92c0-6.676,3.294-9.168,8.634-9.168a12.632,12.632,0,0,1,6.854,1.691Zm41.57,14.064c0-5.519-1.78-9.525-5.252-11.928a22.181,22.181,0,0,0-13-3.65c-11.839,0-18.515,6.142-19.672,14.776l13.352.89c.623-2.937,2.225-4.985,5.43-4.985,3.472,0,4.985,1.958,4.985,5.252v.623l-11.127,1.869c-8.545,1.513-14.153,4.9-14.153,12.462,0,6.765,5.074,10.771,12.818,10.771,6.32,0,10.949-2.4,13.174-7.032,1.335,4.54,5.163,7.032,10.059,7.032a15.425,15.425,0,0,0,8.99-2.581V46.732a8.21,8.21,0,0,1-3.2.623c-1.513,0-2.4-.89-2.4-2.937Zm-14.153,8.634c0,5.074-3.383,8.189-7.388,8.189-2.4,0-4.006-1.335-4.006-3.383,0-2.581,2.047-3.65,5.519-4.362l5.875-1.068Zm38.365-2.937c0-5.964,1.958-9.881,6.854-9.881,4.362,0,5.875,2.848,5.875,8.278v21.1h14.42V31.155a19.928,19.928,0,0,0-3.116-10.949c-2.047-3.294-5.786-4.9-11.216-4.9-5.964,0-10.682,2.67-12.818,7.032V16.379h-14.42v39.7h14.42Zm35.962,8.456c0,4.629,1.335,7.833,4.006,9.525a16.559,16.559,0,0,0,8.99,2.581c5.43,0,8.99-1.335,11.928-3.561V44.24a15.979,15.979,0,0,1-6.142,1.335c-2.937,0-4.54-1.424-4.54-4.718V26.348h10.326v-9.97H390.862V5.43h-9.079l-1.335,5.163c-.979,3.65-2.225,5.786-6.231,6.409l-2.937.445v8.9h5.341Zm58.393-3.116c-1.335,3.116-3.828,4.451-7.744,4.451-4.362,0-7.922-2.314-8.278-7.21h27.861V35.161A20.29,20.29,0,0,0,441.6,21.274c-3.472-4.006-8.456-5.964-15.043-5.964a21.282,21.282,0,0,0-15.488,6.142,20.655,20.655,0,0,0-6.142,15.4c0,6.32,2.047,11.216,6.142,14.865s9.347,5.43,15.667,5.43c10.415,0,17.8-5.163,19.85-14.153Zm-15.845-9.7c.445-3.65,2.581-6.587,7.21-6.587a6.453,6.453,0,0,1,6.765,6.587Zm30.71,10.949c.445,4.807,2.492,8.367,6.142,10.593a26.629,26.629,0,0,0,13.8,3.383c11.3,0,18.426-4.9,18.426-13.174,0-7.744-5.163-11.75-14.064-13.174l-7.744-1.335a2.3,2.3,0,0,1-2.4-2.225c0-1.78,1.6-2.848,4.362-2.848,4.362,0,7.032,1.78,7.477,4.629l11.839-.356c-.8-8.189-7.655-13.352-19.049-13.352-11.038,0-17.981,5.608-17.981,13.441,0,8.1,5.074,11.216,14.687,12.729l5.875.89c2.759.445,3.65,1.513,3.65,3.026s-1.691,2.759-4.9,2.759c-4.362,0-7.121-1.869-7.566-5.163ZM492.516,0V14.42l3.026,22.966H504.8l3.027-22.966V0Zm0,56.079h15.31V40.769h-15.31Z" transform="translate(8.94 0) rotate(9)" fill="#010704"/>
</svg>
